<svg width="1304" height="956" viewBox="0 0 1304 956" fill="none" xmlns="http://www.w3.org/2000/svg">
<rect width="1304" height="956" fill="#E5E5E5"/>
<g clip-path="url(#clip0_0_1)">
<rect width="597" height="576" transform="translate(707)" fill="white"/>
<path d="M1218.1 238.079C1203.23 257.775 1178.23 269.476 1152.11 269.476C1109.67 269.476 1071.93 237.079 1071.93 194.685C1071.93 159.714 1091.06 134.634 1117.39 123.089C1124.63 119.929 1132.28 117.798 1140.11 116.758C1144.09 116.222 1148.1 115.954 1152.11 115.955C1162.37 115.955 1172.53 117.978 1182.01 121.908C1210.1 133.516 1230.54 160.87 1231.96 192.716C1232.75 210.356 1227.4 225.777 1218.1 238.079Z" fill="#657285"/>
<path d="M1107.91 199.454C1107.91 199.454 1110.91 206.383 1107.91 210.189C1104.92 213.996 1104.65 221.196 1110.64 225.951C1116.62 230.705 1119.2 231.115 1117.84 235.87C1116.48 240.625 1115.06 246.435 1117.3 248.88C1119.54 251.326 1120.46 257.136 1125.46 257.563C1130.46 257.991 1125.06 253.587 1128.32 249.509C1131.59 245.432 1144.23 244.619 1143.01 236.568C1141.79 228.517 1153.42 227.802 1155.05 222.502C1156.69 217.202 1149.75 213.944 1143.93 214.35C1138.1 214.757 1141.68 205.688 1135.36 204.361C1129.03 203.035 1126.07 197.943 1122.4 198.554C1118.73 199.165 1114.65 193.966 1110.46 195.599C1106.28 197.231 1107.91 199.454 1107.91 199.454Z" fill="#B8C1C9"/>
<path d="M1097.3 144.012C1097.3 144.012 1092.95 147.408 1091.74 152.844C1090.53 158.279 1084.39 161.676 1083.44 169.168C1082.49 176.659 1086.81 176.843 1085.28 180.921C1083.75 184.998 1085.65 187.037 1090.31 189.076C1094.97 191.115 1095.38 194.247 1098.13 195.279C1100.89 196.311 1100.17 199.061 1101.09 199.367C1102.01 199.673 1101.6 197.283 1102.56 194.157C1103.51 191.031 1104.32 189.739 1100.86 189.875C1097.39 190.01 1098.47 187.225 1099.83 185.46C1101.19 183.696 1097.93 183.422 1096.84 183.693C1095.75 183.963 1096.03 188.993 1093.78 186.613C1091.53 184.234 1090.45 181.518 1092.28 178.392C1094.12 175.267 1098.06 177.851 1100.86 174.113C1103.65 170.376 1107.59 171.87 1107.81 174.86C1108.03 177.851 1113.59 177.917 1114.54 173.978C1115.5 170.039 1115.09 163.173 1120.8 162.055C1126.52 160.936 1137.75 155.226 1130.6 152.882C1123.46 150.538 1126.31 145.644 1122.64 145.936C1118.97 146.227 1120.4 151.746 1116.31 150.103C1112.23 148.461 1109.27 144.091 1114.99 142.869C1120.71 141.646 1123.05 135.329 1118.66 135.735C1114.27 136.141 1113.56 131.862 1110.91 132.373C1108.25 132.884 1105.5 139.319 1102.75 140.931C1099.99 142.542 1097.3 144.012 1097.3 144.012Z" fill="#B8C1C9"/>
<path d="M1134.1 131.442C1134.1 131.442 1139.75 129.879 1142.2 131.442C1144.65 133.005 1148.46 137.42 1145.26 139.052C1142.06 140.684 1138.72 141.226 1140.29 144.282C1141.85 147.339 1135.8 148.36 1134.1 144.282C1132.4 140.205 1132.4 138.725 1130.63 136.808C1128.85 134.891 1129.61 130.831 1134.1 131.442Z" fill="#B8C1C9"/>
<path d="M1218.1 238.079C1194.75 231.959 1214.12 222.356 1205.93 211.304C1201.27 205.011 1209.57 197.432 1204.26 196.39C1201.18 195.786 1194.09 203.646 1190.01 196.39C1185.92 189.135 1178.62 189.097 1176.49 193.487C1174.37 197.877 1165.41 200.919 1159.53 197.735C1153.66 194.55 1157.06 190.302 1151.97 186.968C1146.89 183.633 1146.51 178.326 1151.97 174.232C1157.44 170.137 1154.93 164.222 1163.13 166.042C1171.33 167.862 1169.74 148.982 1169.74 148.982C1169.61 145.679 1172.81 145.113 1170.99 142.035C1169.17 138.958 1164.04 141.466 1161.31 134.641C1158.58 127.816 1165.64 123.721 1171.33 124.388C1172.99 124.583 1177.02 123.423 1182.02 121.905C1210.12 133.512 1230.56 160.867 1231.98 192.712C1232.75 210.356 1227.4 225.777 1218.1 238.079Z" fill="#B8C1C9"/>
<path d="M1109.58 183.859C1109.58 183.859 1114.29 181.237 1116.79 183.321C1119.3 185.405 1120.38 186.794 1124.07 186.005C1127.77 185.217 1130.28 186.7 1127.9 187.791C1125.52 188.881 1119.9 190.771 1117.34 188.506C1114.77 186.242 1107.37 184.773 1109.58 183.859Z" fill="#B8C1C9"/>
<path d="M1128.55 192.323C1128.55 192.323 1131.89 192.917 1132.67 191.545C1133.44 190.173 1131.89 191.486 1130.61 190.771C1129.33 190.055 1126.88 190.771 1128.55 192.323Z" fill="#B8C1C9"/>
<path d="M1008.15 469.215C1153.47 469.215 1271.28 457.37 1271.28 442.76C1271.28 428.149 1153.47 416.305 1008.15 416.305C862.828 416.305 745.02 428.149 745.02 442.76C745.02 457.37 862.828 469.215 1008.15 469.215Z" fill="#EAEAEA"/>
<g opacity="0.6">
<path d="M1139.2 319.542C1169.3 288.808 1211.54 252.51 1229.92 268.782C1252.07 288.402 1198.28 313.085 1157.83 338.363C1143.32 347.432 1120.01 339.131 1139.2 319.542Z" fill="#D5D6DA"/>
</g>
<path d="M1102 332.32C1102 332.32 1255.65 272.929 1275.93 320.4C1296.21 367.871 1161.02 334.553 1117.03 353.43L1102 332.32Z" fill="#B8C1C9"/>
<path d="M1110.31 344.188C1140.44 330.601 1177.61 326.301 1203.49 325.085C1231.54 323.769 1252.71 325.697 1252.92 325.714L1253.04 324.401C1252.84 324.38 1231.57 322.446 1203.43 323.765C1177.44 324.985 1140.09 329.322 1109.76 342.982L1110.31 344.188Z" fill="white"/>
<path d="M1207.58 430.114C1188.3 421.494 1172.55 448.682 1157.02 430.093C1143.9 414.363 1143.64 411.894 1134.69 412.432C1131.62 412.631 1128.6 413.265 1125.71 414.314C1122.24 415.551 1116.38 416.815 1110.88 414.092C1077.29 397.459 1068.95 323.64 1117.82 322.213C1121.35 322.109 1125.12 323.831 1129.13 325.919C1150.97 337.252 1150.47 350.721 1182.88 338.988C1215.29 327.256 1211.9 375.717 1225.9 384.202C1239.89 392.687 1254.38 397.268 1254.38 418.68C1254.38 440.092 1226.86 438.748 1207.58 430.114Z" fill="#D5D6DA"/>
<g opacity="0.5">
<path d="M1103.77 361.147L1103.82 359.758C1104.43 359.782 1166.06 363.009 1253.83 424.359L1253.03 425.495C1165.6 364.377 1104.37 361.171 1103.77 361.147Z" fill="white"/>
<path d="M1181.94 367.291C1178.09 348.703 1182.06 339.11 1182.24 338.71L1183.51 339.256C1183.48 339.349 1179.55 348.897 1183.3 367.01L1181.94 367.291Z" fill="white"/>
<path d="M1175.03 380.802C1175.98 372.814 1182.25 364.936 1193.17 357.99C1198.31 354.752 1203.77 352.026 1209.44 349.852L1209.91 351.158C1209.6 351.269 1178.59 362.62 1176.41 380.969L1175.03 380.802Z" fill="white"/>
<path d="M1199.17 395.532C1198.65 393.406 1198.47 392.131 1198.45 392.058L1199.84 391.867C1199.88 392.135 1203.91 418.958 1227.2 434.994L1226.41 436.133C1207.63 423.223 1201.11 403.461 1199.17 395.532Z" fill="white"/>
<path d="M1191.32 429.614C1190.39 420 1193.17 413.123 1195.66 409.046C1198.38 404.607 1201.29 402.474 1201.41 402.384L1202.22 403.52C1202.11 403.6 1190.98 411.894 1192.69 429.489L1191.32 429.614Z" fill="white"/>
</g>
<path d="M843.535 120.252C843.535 120.252 848.402 110.902 860.708 112.072C873.013 113.243 871.549 122.617 877.397 121.738C883.246 120.859 891.462 121.738 893.221 127.594C894.981 133.45 902.891 130.23 903.186 135.207C903.482 140.184 894.101 143.703 883.256 139.309C872.411 134.915 867.14 142.72 851.9 141.306C836.66 139.892 834.772 138.135 825.753 139.014C816.734 139.892 816.949 133.724 821.052 129.636C825.155 125.548 841.775 125.913 843.535 120.252Z" fill="#EAEAEA"/>
<g opacity="0.6">
<path d="M905.241 151.02C905.241 151.02 907.773 146.158 914.177 146.766C920.582 147.374 919.821 152.253 922.87 151.795C925.919 151.336 930.172 151.795 931.103 154.844C932.035 157.894 936.138 156.234 936.291 158.807C936.444 161.381 931.562 163.225 925.919 160.94C920.276 158.654 917.529 162.718 909.598 161.982C901.667 161.245 900.686 160.332 895.993 160.787C891.299 161.242 891.406 158.033 893.559 155.9C895.711 153.768 904.327 153.976 905.241 151.02Z" fill="#EAEAEA"/>
</g>
<path d="M831.08 182.408C828.267 185.69 826.383 185.773 825.096 184.672C823.81 183.571 823.601 181.699 826.414 178.42C831.543 172.44 836.355 171.543 836.355 171.543C836.355 171.543 836.285 176.336 831.08 182.408Z" fill="#D5D6DA"/>
<path d="M840.04 208.956C838.437 212.975 836.685 213.659 835.11 213.034C833.535 212.409 832.732 210.703 834.331 206.688C837.245 199.37 841.508 196.963 841.508 196.963C841.508 196.963 842.996 201.531 840.04 208.956Z" fill="#D5D6DA"/>
<path d="M862.168 278.458L861.375 278.656C861.344 278.534 858.19 266.229 848.117 250.086C838.823 235.189 821.57 213.881 792.137 196.946L792.548 196.251C822.13 213.27 839.487 234.696 848.82 249.679C858.976 265.93 862.168 278.333 862.168 278.458Z" fill="#D5D6DA"/>
<path d="M823.858 219.629L823.062 219.435C830.072 190.555 811.025 164.972 810.83 164.715L811.484 164.222C811.678 164.479 830.962 190.364 823.858 219.629Z" fill="#D5D6DA"/>
<path d="M807.867 211.106C802.946 212.73 797.678 213.005 792.614 211.901L792.822 211.113C792.916 211.137 802.273 213.544 811.049 208.828L811.438 209.547C810.292 210.162 809.098 210.684 807.867 211.106V211.106Z" fill="#D5D6DA"/>
<path d="M854.866 261.467C838.333 265.135 822.766 261.814 808.601 251.624C808.257 251.36 807.898 251.115 807.527 250.891C807.558 250.898 807.59 250.898 807.62 250.891V250.075C807.864 250.075 808.066 250.211 809.088 250.95C823.058 261.023 838.403 264.273 854.696 260.675L854.866 261.467Z" fill="#D5D6DA"/>
<path d="M829.484 260.884L828.667 260.939C827.919 249.856 816.014 237.28 815.892 237.155L816.487 236.589C818.74 239.038 820.811 241.649 822.683 244.4C825.576 248.616 829.095 254.924 829.484 260.884Z" fill="#D5D6DA"/>
<path d="M790.162 192.827C795.531 195.109 796.591 197.054 795.927 198.613C795.263 200.173 793.146 200.756 787.756 198.474C777.972 194.307 774.446 189.482 774.446 189.482C774.446 189.482 780.232 188.611 790.162 192.827Z" fill="#D5D6DA"/>
<path d="M793.827 208.675C799.637 209.234 801.233 210.759 801.07 212.454C800.906 214.149 799.05 215.344 793.239 214.784C782.655 213.767 777.833 210.221 777.833 210.221C777.833 210.221 783.087 207.633 793.827 208.675Z" fill="#D5D6DA"/>
<path d="M817.346 233.845C820.475 236.832 820.451 238.708 819.279 239.941C818.107 241.173 816.226 241.267 813.097 238.28C807.401 232.834 806.769 227.986 806.769 227.986C806.769 227.986 811.563 228.319 817.346 233.845Z" fill="#D5D6DA"/>
<path d="M811.539 196.04C813.844 199.697 813.364 201.517 811.928 202.42C810.492 203.323 808.646 202.969 806.337 199.294C802.137 192.629 802.707 187.773 802.707 187.773C802.707 187.773 807.276 189.277 811.539 196.04Z" fill="#D5D6DA"/>
<path d="M838.326 253.26C839.512 257.428 838.542 259.033 836.907 259.512C835.273 259.991 833.601 259.116 832.419 254.955C830.263 247.38 832.175 242.879 832.175 242.879C832.175 242.879 836.139 245.574 838.326 253.26Z" fill="#D5D6DA"/>
<path d="M811.859 249.735C815.555 251.986 815.941 253.826 815.058 255.275C814.175 256.723 812.36 257.227 808.664 254.976C801.929 250.874 800.274 246.293 800.274 246.293C800.274 246.293 805.03 245.578 811.859 249.735Z" fill="#D5D6DA"/>
<path d="M812.036 160.526C815.166 165.444 814.943 167.646 813.514 168.556C812.085 169.466 809.988 168.74 806.856 163.822C801.143 154.862 800.972 148.888 800.972 148.888C800.972 148.888 806.244 151.437 812.036 160.526Z" fill="#D5D6DA"/>
<path d="M925.102 385.345C925.102 385.345 841.702 248.057 805.26 272.06C768.817 296.063 881.546 351.686 904.556 392.42L925.102 385.345Z" fill="#D5D6DA"/>
<path d="M886.292 360.855C886.292 360.855 790.305 259.154 757.371 288.103C724.436 317.052 840.263 340.978 867.036 371.532L886.292 360.855Z" fill="#EAEAEA"/>
<path d="M875.572 366.923C857.453 345.487 830.545 328.597 811.16 318.201C790.145 306.935 773.212 300.669 773.042 300.606L773.431 299.564C773.601 299.627 790.607 305.92 811.678 317.226C831.15 327.666 858.187 344.636 876.417 366.197L875.572 366.923Z" fill="white"/>
<path d="M771.585 400.338C793.187 404.534 790.301 437.126 814.679 430.576C839.056 424.025 836.994 422.487 849.004 432.872C849.004 432.872 853.813 443.051 863.608 444.555C902.202 450.484 953.583 392.565 912.801 362.109C909.855 359.911 905.62 359.129 900.937 358.497C875.527 355.083 867.881 366.864 847.3 337.474C826.72 308.084 800.538 351.398 783.525 350.252C766.512 349.106 751.432 344.347 738.581 362.592C725.73 380.837 749.978 396.16 771.585 400.338Z" fill="#B8C1C9"/>
<path d="M901.41 403.697L902.192 402.481C901.657 402.134 847.199 368 735.625 367.75V369.198C846.779 369.445 900.874 403.353 901.41 403.697Z" fill="white"/>
<path d="M831.111 362.151C845.537 348.606 847.905 338.061 847.999 337.62L846.58 337.318C846.56 337.422 844.178 347.907 830.117 361.095L831.111 362.151Z" fill="white"/>
<path d="M828.893 377.798C832.871 370.434 832.259 359.959 827.12 347.505C824.679 341.666 821.668 336.082 818.131 330.833L816.949 331.663C817.147 331.945 836.768 360.182 827.62 377.113L828.893 377.798Z" fill="white"/>
<path d="M799.491 375.908C801.209 374.408 802.137 373.435 802.179 373.39L801.136 372.404C800.941 372.609 781.418 393.041 751.957 392.781V394.226C775.67 394.437 793.083 381.5 799.491 375.908Z" fill="white"/>
<path d="M785.74 409.64C792.297 401.999 794.057 394.486 794.377 389.519C794.724 384.112 793.518 380.548 793.469 380.399L792.099 380.871C792.144 381.007 796.651 394.729 784.641 408.698L785.74 409.64Z" fill="white"/>
<path d="M1060.38 403.937V359.55H970.749V403.937C970.749 415.471 963.064 424.821 953.586 424.821H949.973V430.552H1081.16V424.821H1077.55C1068.07 424.821 1060.38 415.471 1060.38 403.937Z" fill="#00A3FE"/>
<path d="M1080.42 430.552H950.707C949.946 430.552 949.217 430.25 948.679 429.712C948.141 429.175 947.838 428.446 947.838 427.686V427.686C947.838 426.926 948.141 426.197 948.679 425.66C949.217 425.123 949.946 424.821 950.707 424.821H1080.42C1081.19 424.821 1081.91 425.123 1082.45 425.66C1082.99 426.197 1083.29 426.926 1083.29 427.686V427.686C1083.29 428.446 1082.99 429.175 1082.45 429.712C1081.91 430.25 1081.19 430.552 1080.42 430.552V430.552Z" fill="#016EB9"/>
<path d="M1168.24 386.8L865.141 383.327C862.023 383.29 859.045 382.027 856.853 379.812C854.661 377.597 853.431 374.608 853.43 371.494V186.7C853.431 183.593 854.654 180.612 856.837 178.398C859.019 176.185 861.986 174.918 865.096 174.871L1164.29 170.293C1167.42 170.245 1170.44 171.438 1172.7 173.611C1174.95 175.783 1176.25 178.759 1176.31 181.886L1180.22 374.727C1180.25 376.312 1179.97 377.888 1179.38 379.36C1178.79 380.832 1177.91 382.171 1176.79 383.297C1175.67 384.423 1174.34 385.314 1172.87 385.915C1171.41 386.517 1169.83 386.818 1168.24 386.8V386.8Z" fill="#016EB9"/>
<path d="M1157.98 188.909H871.528C868.02 188.909 865.176 191.75 865.176 195.255V343.806C865.176 347.31 868.02 350.151 871.528 350.151H1157.98C1161.48 350.151 1164.33 347.31 1164.33 343.806V195.255C1164.33 191.75 1161.48 188.909 1157.98 188.909Z" fill="#EAEAEA"/>
<path d="M1046 138.517L1049.76 138.416C1050.11 138.407 1050.44 138.331 1050.76 138.192C1051.07 138.052 1051.35 137.853 1051.59 137.604C1051.82 137.356 1052.01 137.064 1052.13 136.744C1052.25 136.425 1052.31 136.084 1052.3 135.742L1052.18 131.164C1052.16 130.474 1051.87 129.819 1051.37 129.343C1050.86 128.868 1050.19 128.611 1049.5 128.629L1046.84 128.702C1046.28 128.716 1045.73 128.55 1045.27 128.228C1044.81 127.907 1044.47 127.447 1044.29 126.917C1044.22 126.708 1044.15 126.5 1044.07 126.295C1043.89 125.802 1043.87 125.267 1044 124.759C1044.13 124.252 1044.42 123.797 1044.81 123.454L1046.63 121.863C1047.15 121.407 1047.47 120.764 1047.52 120.073C1047.56 119.383 1047.33 118.703 1046.88 118.182L1043.86 114.74C1043.63 114.482 1043.36 114.271 1043.05 114.119C1042.74 113.967 1042.41 113.877 1042.07 113.854C1041.73 113.831 1041.38 113.876 1041.06 113.986C1040.74 114.095 1040.44 114.268 1040.18 114.493L1038.35 116.084C1037.96 116.43 1037.47 116.648 1036.95 116.71C1036.43 116.772 1035.9 116.675 1035.44 116.431C1035.25 116.33 1035.05 116.23 1034.85 116.136C1034.35 115.892 1033.94 115.492 1033.68 114.995C1033.42 114.498 1033.33 113.931 1033.42 113.378L1033.84 110.749C1033.95 110.067 1033.79 109.369 1033.38 108.809C1032.97 108.249 1032.36 107.872 1031.68 107.762L1027.16 107.033C1026.48 106.924 1025.78 107.09 1025.22 107.495C1024.66 107.9 1024.28 108.511 1024.17 109.193L1023.57 112.913C1023.49 113.401 1023.27 113.856 1022.94 114.225C1022.61 114.594 1022.18 114.861 1021.7 114.997C1020.87 115.234 1020.06 115.53 1019.27 115.882C1018.76 116.115 1018.18 116.178 1017.63 116.061C1017.08 115.944 1016.59 115.654 1016.21 115.233L1014.26 113.003C1014.03 112.745 1013.76 112.534 1013.45 112.382C1013.15 112.23 1012.81 112.14 1012.47 112.117C1012.13 112.094 1011.79 112.139 1011.46 112.249C1011.14 112.358 1010.84 112.531 1010.58 112.757L1007.13 115.771C1006.61 116.227 1006.29 116.87 1006.25 117.56C1006.2 118.25 1006.43 118.929 1006.89 119.449L1009.51 122.45C1009.85 122.823 1010.06 123.283 1010.14 123.775C1010.22 124.268 1010.15 124.772 1009.95 125.229C1009.85 125.451 1009.76 125.677 1009.67 125.902C1009.48 126.374 1009.15 126.78 1008.74 127.07C1008.32 127.359 1007.83 127.52 1007.32 127.531L1003.06 127.643C1002.37 127.662 1001.72 127.954 1001.24 128.457C1000.76 128.959 1000.51 129.629 1000.53 130.32L1000.65 134.898C1000.67 135.589 1000.96 136.243 1001.46 136.719C1001.96 137.194 1002.63 137.451 1003.32 137.433L1006.98 137.336C1007.53 137.322 1008.06 137.48 1008.52 137.787C1008.97 138.094 1009.31 138.536 1009.5 139.048V139.083C1009.68 139.577 1009.71 140.114 1009.58 140.624C1009.45 141.134 1009.17 141.592 1008.77 141.938L1006.19 144.196C1005.93 144.421 1005.72 144.696 1005.57 145.003C1005.41 145.31 1005.32 145.644 1005.3 145.986C1005.28 146.328 1005.32 146.671 1005.43 146.995C1005.54 147.32 1005.72 147.62 1005.94 147.877L1008.96 151.323C1009.19 151.58 1009.46 151.791 1009.77 151.943C1010.08 152.094 1010.41 152.184 1010.76 152.207C1011.1 152.229 1011.44 152.184 1011.76 152.074C1012.09 151.964 1012.39 151.791 1012.65 151.566L1015.23 149.308C1015.62 148.96 1016.11 148.741 1016.64 148.679C1017.16 148.617 1017.69 148.715 1018.16 148.961L1018.19 148.982C1018.68 149.235 1019.07 149.633 1019.31 150.121C1019.56 150.609 1019.65 151.162 1019.56 151.701L1018.98 155.303C1018.93 155.641 1018.94 155.987 1019.02 156.32C1019.1 156.654 1019.24 156.969 1019.44 157.246C1019.64 157.524 1019.9 157.76 1020.19 157.939C1020.48 158.119 1020.81 158.239 1021.14 158.293L1025.66 159.019C1026.35 159.128 1027.05 158.962 1027.61 158.557C1028.17 158.152 1028.54 157.541 1028.66 156.859L1029.33 152.663C1029.41 152.162 1029.63 151.694 1029.98 151.319C1030.32 150.943 1030.76 150.677 1031.26 150.552C1031.49 150.493 1031.73 150.43 1031.95 150.361C1032.43 150.223 1032.94 150.226 1033.41 150.367C1033.89 150.509 1034.31 150.784 1034.64 151.159L1037.27 154.16C1037.49 154.418 1037.77 154.629 1038.07 154.78C1038.38 154.932 1038.72 155.022 1039.06 155.044C1039.4 155.067 1039.74 155.022 1040.07 154.912C1040.39 154.802 1040.69 154.629 1040.95 154.403L1044.4 151.389C1044.66 151.163 1044.87 150.889 1045.02 150.582C1045.18 150.275 1045.26 149.942 1045.29 149.6C1045.31 149.258 1045.27 148.916 1045.15 148.591C1045.04 148.267 1044.87 147.968 1044.65 147.71L1042.69 145.477C1042.32 145.054 1042.1 144.523 1042.06 143.963C1042.01 143.403 1042.15 142.845 1042.45 142.369C1042.9 141.639 1043.3 140.879 1043.64 140.094C1043.84 139.633 1044.17 139.239 1044.59 138.959C1045.01 138.68 1045.5 138.526 1046 138.517V138.517ZM1033.56 140.653C1029.56 144.157 1021.37 143.161 1017.86 139.16C1014.36 135.158 1015.76 128.393 1019.76 124.92C1023.77 121.446 1030.6 123.294 1034.1 127.295C1037.61 131.296 1037.57 137.149 1033.56 140.65V140.653Z" fill="#00A3FE"/>
<path d="M1026.51 161.926C1026.37 161.927 1026.22 161.915 1026.08 161.891L1021.56 161.165C1021.21 161.111 1020.88 160.987 1020.58 160.803C1020.28 160.618 1020.01 160.376 1019.81 160.09C1019.6 159.804 1019.45 159.48 1019.37 159.136C1019.29 158.793 1019.28 158.437 1019.33 158.088L1019.91 154.487C1020 153.963 1019.92 153.426 1019.68 152.952C1019.44 152.478 1019.06 152.09 1018.59 151.843H1018.55C1018.1 151.608 1017.59 151.515 1017.08 151.577C1016.57 151.639 1016.09 151.853 1015.71 152.191L1013.13 154.448C1012.86 154.681 1012.56 154.859 1012.22 154.972C1011.89 155.085 1011.53 155.131 1011.18 155.108C1010.83 155.085 1010.48 154.993 1010.17 154.837C1009.85 154.68 1009.57 154.464 1009.34 154.198L1006.32 150.749C1006.08 150.484 1005.9 150.176 1005.79 149.842C1005.68 149.507 1005.63 149.154 1005.65 148.802C1005.68 148.45 1005.77 148.106 1005.93 147.79C1006.08 147.474 1006.3 147.192 1006.57 146.96L1009.15 144.703C1009.53 144.363 1009.81 143.916 1009.93 143.421C1010.05 142.925 1010.03 142.403 1009.85 141.924V141.889C1009.67 141.393 1009.34 140.965 1008.9 140.667C1008.46 140.369 1007.94 140.216 1007.41 140.229L1003.76 140.326C1003.05 140.344 1002.36 140.079 1001.84 139.588C1001.32 139.098 1001.02 138.423 1001 137.711L1000.88 133.133C1000.86 132.422 1001.13 131.733 1001.62 131.217C1002.11 130.7 1002.78 130.399 1003.5 130.379L1007.75 130.265C1008.24 130.255 1008.72 130.1 1009.12 129.819C1009.53 129.539 1009.84 129.145 1010.03 128.688C1010.12 128.459 1010.21 128.233 1010.31 128.011C1010.5 127.569 1010.57 127.082 1010.49 126.607C1010.42 126.131 1010.21 125.687 1009.89 125.326L1007.26 122.325C1006.79 121.789 1006.55 121.089 1006.6 120.379C1006.65 119.668 1006.98 119.005 1007.51 118.536L1010.96 115.521C1011.22 115.288 1011.53 115.11 1011.87 114.997C1012.2 114.884 1012.55 114.838 1012.91 114.861C1013.26 114.885 1013.6 114.978 1013.92 115.134C1014.24 115.291 1014.52 115.509 1014.75 115.775L1016.7 118.004C1017.06 118.414 1017.55 118.697 1018.08 118.81C1018.62 118.924 1019.17 118.861 1019.67 118.633C1020.46 118.281 1021.27 117.983 1022.1 117.744C1022.57 117.611 1022.98 117.35 1023.3 116.991C1023.63 116.632 1023.84 116.19 1023.92 115.716L1024.52 111.996C1024.63 111.293 1025.02 110.664 1025.6 110.247C1026.17 109.83 1026.89 109.66 1027.6 109.773L1032.12 110.499C1032.82 110.613 1033.45 111.002 1033.87 111.579C1034.29 112.157 1034.46 112.876 1034.35 113.58L1033.92 116.205C1033.83 116.742 1033.92 117.293 1034.17 117.776C1034.42 118.259 1034.82 118.647 1035.31 118.883C1035.51 118.977 1035.71 119.078 1035.9 119.178C1036.35 119.412 1036.86 119.504 1037.37 119.442C1037.87 119.38 1038.35 119.167 1038.73 118.831L1040.55 117.24C1041.09 116.772 1041.79 116.536 1042.5 116.583C1043.21 116.631 1043.87 116.958 1044.34 117.494L1047.36 120.936C1047.59 121.201 1047.77 121.509 1047.89 121.843C1048 122.177 1048.05 122.53 1048.02 122.882C1048 123.234 1047.91 123.578 1047.75 123.894C1047.59 124.21 1047.38 124.493 1047.11 124.725L1045.29 126.319C1044.91 126.652 1044.63 127.094 1044.5 127.585C1044.38 128.077 1044.4 128.596 1044.57 129.073C1044.65 129.282 1044.72 129.49 1044.79 129.698C1044.96 130.216 1045.29 130.665 1045.74 130.978C1046.18 131.291 1046.72 131.452 1047.26 131.435L1049.93 131.362C1050.64 131.344 1051.33 131.609 1051.85 132.099C1052.36 132.588 1052.66 133.263 1052.68 133.974L1052.81 138.552C1052.83 139.263 1052.56 139.952 1052.07 140.468C1051.58 140.985 1050.91 141.286 1050.2 141.306L1046.43 141.41C1045.94 141.425 1045.48 141.577 1045.08 141.847C1044.68 142.118 1044.36 142.496 1044.17 142.938C1043.82 143.729 1043.42 144.494 1042.97 145.227C1042.68 145.688 1042.54 146.23 1042.59 146.773C1042.63 147.316 1042.84 147.831 1043.2 148.242L1045.16 150.475C1045.39 150.74 1045.57 151.049 1045.68 151.383C1045.79 151.717 1045.84 152.07 1045.82 152.421C1045.79 152.773 1045.7 153.117 1045.55 153.433C1045.39 153.75 1045.17 154.032 1044.91 154.264L1041.44 157.272C1041.18 157.505 1040.87 157.683 1040.53 157.796C1040.2 157.909 1039.85 157.955 1039.49 157.932C1039.14 157.908 1038.8 157.815 1038.48 157.659C1038.16 157.502 1037.88 157.284 1037.65 157.018L1035.02 154.018C1034.71 153.655 1034.29 153.389 1033.83 153.252C1033.37 153.115 1032.88 153.112 1032.41 153.243C1032.18 153.313 1031.94 153.379 1031.72 153.438C1031.24 153.558 1030.81 153.816 1030.48 154.18C1030.14 154.544 1029.93 154.997 1029.85 155.483L1029.18 159.679C1029.07 160.309 1028.75 160.881 1028.26 161.293C1027.77 161.704 1027.15 161.929 1026.51 161.926V161.926ZM1017.38 151.368C1017.81 151.367 1018.24 151.472 1018.62 151.673L1018.66 151.691C1019.15 151.955 1019.55 152.367 1019.8 152.871C1020.05 153.374 1020.14 153.943 1020.05 154.497L1019.47 158.099C1019.36 158.759 1019.52 159.435 1019.91 159.979C1020.3 160.522 1020.89 160.889 1021.55 160.999L1026.07 161.721C1026.73 161.827 1027.41 161.668 1027.95 161.277C1028.5 160.887 1028.86 160.297 1028.97 159.637L1029.65 155.442C1029.73 154.924 1029.96 154.443 1030.31 154.056C1030.66 153.669 1031.12 153.395 1031.63 153.267C1031.86 153.208 1032.1 153.146 1032.33 153.076C1032.82 152.934 1033.35 152.936 1033.84 153.082C1034.33 153.227 1034.77 153.511 1035.11 153.9L1037.74 156.9C1037.96 157.15 1038.22 157.355 1038.52 157.502C1038.82 157.649 1039.14 157.736 1039.47 157.758C1039.81 157.78 1040.14 157.737 1040.45 157.63C1040.77 157.523 1041.06 157.356 1041.31 157.137L1044.76 154.122C1045.26 153.681 1045.57 153.057 1045.62 152.388C1045.66 151.719 1045.44 151.06 1045 150.555L1043.04 148.322C1042.66 147.886 1042.43 147.339 1042.38 146.762C1042.34 146.185 1042.48 145.609 1042.79 145.119C1043.24 144.392 1043.64 143.634 1043.98 142.851C1044.19 142.382 1044.52 141.981 1044.94 141.693C1045.37 141.406 1045.87 141.245 1046.38 141.229L1050.14 141.125C1050.81 141.106 1051.45 140.822 1051.91 140.336C1052.37 139.85 1052.62 139.201 1052.6 138.531L1052.48 133.957C1052.46 133.286 1052.18 132.65 1051.69 132.189C1051.21 131.727 1050.56 131.477 1049.89 131.494L1047.22 131.567C1046.64 131.583 1046.08 131.413 1045.6 131.082C1045.13 130.751 1044.78 130.277 1044.6 129.73C1044.53 129.521 1044.46 129.316 1044.38 129.112C1044.2 128.604 1044.17 128.053 1044.31 127.53C1044.44 127.007 1044.73 126.538 1045.14 126.184L1046.96 124.593C1047.21 124.374 1047.42 124.108 1047.56 123.81C1047.71 123.512 1047.8 123.188 1047.82 122.857C1047.84 122.525 1047.8 122.192 1047.69 121.878C1047.59 121.563 1047.42 121.272 1047.2 121.023L1044.18 117.577C1043.74 117.075 1043.11 116.768 1042.44 116.723C1041.77 116.679 1041.11 116.901 1040.61 117.341L1038.79 118.932C1038.38 119.288 1037.88 119.513 1037.34 119.578C1036.81 119.643 1036.26 119.545 1035.78 119.296C1035.59 119.196 1035.4 119.095 1035.2 119.001C1034.68 118.751 1034.25 118.339 1033.99 117.827C1033.72 117.315 1033.63 116.73 1033.72 116.16L1034.15 113.534C1034.25 112.874 1034.09 112.197 1033.7 111.654C1033.31 111.11 1032.72 110.743 1032.06 110.634L1027.54 109.905C1026.88 109.8 1026.2 109.959 1025.66 110.35C1025.12 110.74 1024.75 111.329 1024.64 111.989L1024.04 115.709C1023.95 116.213 1023.73 116.683 1023.39 117.065C1023.05 117.446 1022.6 117.724 1022.11 117.865C1021.29 118.102 1020.48 118.397 1019.7 118.748C1019.17 118.988 1018.58 119.053 1018.02 118.931C1017.45 118.81 1016.94 118.509 1016.55 118.074L1014.6 115.844C1014.38 115.594 1014.12 115.39 1013.82 115.242C1013.52 115.095 1013.2 115.008 1012.86 114.986C1012.53 114.964 1012.2 115.008 1011.89 115.114C1011.57 115.221 1011.28 115.389 1011.03 115.608L1007.58 118.623C1007.08 119.064 1006.77 119.688 1006.73 120.357C1006.68 121.025 1006.9 121.684 1007.34 122.19L1009.97 125.19C1010.31 125.574 1010.53 126.045 1010.61 126.55C1010.69 127.055 1010.63 127.573 1010.42 128.042C1010.33 128.261 1010.23 128.486 1010.14 128.712C1009.95 129.201 1009.61 129.621 1009.18 129.919C1008.74 130.218 1008.23 130.382 1007.71 130.39L1003.45 130.504C1003.12 130.513 1002.79 130.587 1002.49 130.722C1002.19 130.857 1001.91 131.05 1001.68 131.291C1001.46 131.532 1001.28 131.816 1001.16 132.126C1001.04 132.436 1000.98 132.767 1000.99 133.099L1001.11 137.676C1001.13 138.347 1001.42 138.983 1001.9 139.444C1002.39 139.906 1003.04 140.156 1003.71 140.139L1007.37 140.042C1007.93 140.026 1008.48 140.188 1008.95 140.504C1009.41 140.82 1009.77 141.274 1009.96 141.803V141.83C1010.15 142.34 1010.18 142.895 1010.04 143.421C1009.91 143.947 1009.62 144.421 1009.21 144.779L1006.62 147.037C1006.37 147.255 1006.17 147.521 1006.02 147.819C1005.87 148.117 1005.79 148.441 1005.77 148.773C1005.74 149.104 1005.79 149.437 1005.89 149.752C1006 150.067 1006.17 150.357 1006.39 150.607L1009.41 154.052C1009.63 154.303 1009.89 154.507 1010.19 154.654C1010.49 154.802 1010.82 154.889 1011.15 154.911C1011.48 154.933 1011.81 154.889 1012.13 154.782C1012.44 154.675 1012.73 154.508 1012.98 154.289L1015.56 152.031C1016.06 151.594 1016.71 151.357 1017.38 151.368V151.368Z" fill="#131F2D"/>
<g opacity="0.6">
<path d="M1136.68 208.029H892.495C889.003 208.029 886.173 210.856 886.173 214.343V255.827C886.173 259.314 889.003 262.141 892.495 262.141H1136.68C1140.17 262.141 1143 259.314 1143 255.827V214.343C1143 210.856 1140.17 208.029 1136.68 208.029Z" fill="#D5D6DA"/>
</g>
<g opacity="0.6">
<path d="M1139.16 278.656H1021.25C1021.01 278.656 1020.77 278.609 1020.55 278.517C1020.33 278.425 1020.13 278.29 1019.96 278.121C1019.79 277.951 1019.65 277.749 1019.56 277.528C1019.47 277.306 1019.42 277.069 1019.42 276.829V275.752C1019.42 275.511 1019.47 275.272 1019.56 275.05C1019.66 274.827 1019.79 274.625 1019.96 274.456C1020.14 274.286 1020.34 274.151 1020.56 274.06C1020.79 273.969 1021.02 273.924 1021.27 273.925L1139.18 275.012C1139.66 275.017 1140.12 275.211 1140.46 275.552C1140.8 275.894 1140.99 276.355 1140.99 276.836V276.836C1140.99 277.319 1140.8 277.782 1140.45 278.123C1140.11 278.464 1139.65 278.656 1139.16 278.656V278.656Z" fill="#D5D6DA"/>
</g>
<path d="M1130.34 232.959H1051.22V229.962L1130.34 230.663V232.959Z" fill="#657285"/>
<path d="M1086.56 239.704H1051.22V236.707L1086.56 237.412V239.704Z" fill="#00A3FE"/>
<path d="M1098.03 254.299H1051.22V251.298L1098.03 252.003V254.299Z" fill="#00A3FE"/>
<path d="M1086.56 247.533H1051.22V244.535L1086.56 245.24V247.533Z" fill="#5C305D"/>
<path d="M1112.33 247.533H1091.62V244.535L1112.33 245.24V247.533Z" fill="#657285"/>
<path d="M1126.95 239.704H1091.62V236.707L1126.95 237.412V239.704Z" fill="#00A3FE"/>
<g opacity="0.6">
<path d="M1139.34 289.155L1021.12 290.545C1020.9 290.547 1020.68 290.506 1020.47 290.423C1020.27 290.341 1020.08 290.218 1019.93 290.063C1019.77 289.907 1019.64 289.722 1019.56 289.518C1019.47 289.314 1019.43 289.095 1019.43 288.874V287.485C1019.43 287.043 1019.61 286.619 1019.92 286.306C1020.23 285.993 1020.66 285.818 1021.1 285.818H1139.32C1139.76 285.818 1140.19 285.993 1140.5 286.306C1140.81 286.618 1140.99 287.042 1140.99 287.485V287.485C1140.99 287.924 1140.82 288.346 1140.51 288.659C1140.2 288.971 1139.78 289.15 1139.34 289.155V289.155Z" fill="#D5D6DA"/>
</g>
<g opacity="0.6">
<path d="M951.757 325.842H887.057V321.994L950.704 322.869C951.237 322.877 951.746 323.094 952.12 323.473C952.495 323.853 952.704 324.365 952.703 324.898V324.898C952.703 325.148 952.603 325.389 952.426 325.566C952.248 325.743 952.008 325.842 951.757 325.842Z" fill="#D5D6DA"/>
</g>
<g opacity="0.6">
<path d="M971.98 335.244L888.121 336.363C887.982 336.365 887.844 336.341 887.715 336.289C887.586 336.238 887.469 336.162 887.369 336.065C887.27 335.968 887.192 335.852 887.138 335.724C887.084 335.597 887.057 335.459 887.057 335.321V333.619C887.057 333.343 887.167 333.077 887.362 332.882C887.558 332.687 887.823 332.577 888.1 332.577H971.959C972.235 332.577 972.501 332.687 972.696 332.882C972.892 333.077 973.002 333.343 973.002 333.619V334.202C973.002 334.475 972.895 334.737 972.704 334.932C972.512 335.127 972.253 335.239 971.98 335.244V335.244Z" fill="#D5D6DA"/>
</g>
<g opacity="0.6">
<path d="M1038.8 335.255L980.133 336.352C979.954 336.355 979.776 336.323 979.609 336.257C979.443 336.19 979.291 336.092 979.163 335.966C979.036 335.841 978.934 335.691 978.865 335.526C978.795 335.361 978.76 335.184 978.76 335.005V333.911C978.76 333.553 978.902 333.21 979.155 332.958C979.408 332.705 979.751 332.563 980.109 332.563H1038.8C1039.16 332.564 1039.5 332.706 1039.75 332.959C1040 333.212 1040.15 333.554 1040.15 333.911C1040.15 334.267 1040 334.609 1039.75 334.861C1039.5 335.113 1039.16 335.255 1038.8 335.255V335.255Z" fill="#D5D6DA"/>
</g>
<g opacity="0.6">
<path d="M1139.34 304.357L1021.12 305.747C1020.9 305.749 1020.68 305.708 1020.47 305.625C1020.27 305.543 1020.08 305.42 1019.93 305.265C1019.77 305.109 1019.64 304.924 1019.56 304.72C1019.47 304.516 1019.43 304.297 1019.43 304.076V302.687C1019.43 302.245 1019.61 301.821 1019.92 301.508C1020.23 301.195 1020.66 301.02 1021.1 301.02H1139.32C1139.76 301.02 1140.19 301.195 1140.5 301.508C1140.81 301.82 1140.99 302.244 1140.99 302.687V302.687C1140.99 303.126 1140.82 303.548 1140.51 303.861C1140.2 304.173 1139.78 304.352 1139.34 304.357V304.357Z" fill="#D5D6DA"/>
</g>
<path d="M939.869 269.528H891.737C888.664 269.528 886.173 272.016 886.173 275.085V305.153C886.173 308.222 888.664 310.71 891.737 310.71H939.869C942.942 310.71 945.432 308.222 945.432 305.153V275.085C945.432 272.016 942.942 269.528 939.869 269.528Z" fill="#D5D6DA"/>
<g opacity="0.6">
<path d="M1001.68 269.528H958.12C955.506 269.528 953.388 271.645 953.388 274.255V305.983C953.388 308.593 955.506 310.71 958.12 310.71H1001.68C1004.29 310.71 1006.41 308.593 1006.41 305.983V274.255C1006.41 271.645 1004.29 269.528 1001.68 269.528Z" fill="#D5D6DA"/>
</g>
<path d="M941.507 333.591C941.19 350.738 939.952 374.21 936.051 394.792C929.553 429.135 889.539 452.696 882.157 456.784C881.797 456.983 881.395 457.095 880.984 457.111C880.573 457.126 880.164 457.046 879.79 456.875C817.203 428.155 818.18 384.511 818.18 384.511V333.251C818.18 332.559 818.452 331.894 818.938 331.401C819.424 330.908 820.085 330.626 820.777 330.615C830.308 330.458 863.545 328.666 878.072 311.623C878.309 311.348 878.601 311.125 878.929 310.969C879.257 310.812 879.614 310.725 879.978 310.714C880.341 310.702 880.703 310.765 881.04 310.901C881.378 311.036 881.684 311.239 881.938 311.498C888.197 317.851 908.6 335.463 941.395 333.598L941.507 333.591Z" fill="#00A3FE"/>
<path d="M880.833 448.438C880.792 448.437 880.752 448.429 880.714 448.414C867.954 442.669 857.119 435.737 848.503 427.797C841.608 421.445 836.115 414.436 832.161 406.958C825.444 394.233 825.583 384.442 825.583 384.344V341.381C825.575 340.209 826.027 339.08 826.842 338.236C827.657 337.392 828.77 336.901 829.943 336.866C834.623 336.706 843.889 336.088 853.326 333.713C864.584 330.878 872.884 326.419 878.013 320.466C878.252 320.184 878.547 319.956 878.88 319.795C879.213 319.634 879.575 319.545 879.945 319.532C880.314 319.52 880.682 319.585 881.025 319.723C881.367 319.861 881.677 320.069 881.935 320.334C885.412 323.904 894.762 332.58 906.736 336.001C914.179 338.077 921.839 339.278 929.56 339.582C930.705 339.63 931.785 340.124 932.57 340.958C933.354 341.793 933.78 342.901 933.756 344.045C933.256 364.078 931.802 380.222 929.306 393.399C927.866 400.995 924.438 408.618 919.083 416.051C914.81 421.987 909.32 427.818 902.762 433.382C896.021 439.105 888.72 444.134 880.968 448.393C880.927 448.419 880.881 448.435 880.833 448.438V448.438ZM880.036 320.115H879.967C879.676 320.125 879.39 320.195 879.127 320.321C878.865 320.446 878.631 320.624 878.44 320.844C873.253 326.895 864.856 331.413 853.479 334.275C843.99 336.665 834.682 337.286 829.974 337.446C828.952 337.477 827.983 337.905 827.272 338.64C826.562 339.374 826.166 340.357 826.17 341.378V384.362C826.17 384.466 826.035 394.135 832.697 406.739C836.608 414.141 842.064 421.091 848.914 427.394C857.45 435.254 868.183 442.131 880.822 447.831C888.493 443.601 895.722 438.617 902.401 432.951C912.637 424.269 925.519 410.331 928.743 393.302C931.232 380.159 932.682 364.044 933.183 344.042C933.199 343.048 932.828 342.088 932.147 341.363C931.466 340.639 930.529 340.208 929.535 340.162C921.772 339.855 914.071 338.646 906.587 336.561C894.48 333.087 885.029 324.345 881.532 320.74C881.338 320.54 881.105 320.382 880.848 320.274C880.591 320.167 880.315 320.113 880.036 320.115V320.115Z" fill="#131F2D"/>
<path d="M894.25 405.52H854.644C852.881 405.519 851.191 404.818 849.945 403.573C848.698 402.328 847.997 400.64 847.996 398.88V374.47C847.997 372.709 848.697 371.02 849.944 369.774C851.19 368.529 852.88 367.828 854.644 367.826H856.876C857.831 363.891 860.083 360.39 863.27 357.887C866.457 355.383 870.393 354.022 874.447 354.022C878.501 354.022 882.438 355.383 885.624 357.887C888.811 360.39 891.063 363.891 892.018 367.826H894.25C896.014 367.828 897.705 368.528 898.952 369.774C900.199 371.02 900.9 372.709 900.902 374.47V398.88C900.899 400.641 900.197 402.329 898.951 403.574C897.704 404.818 896.013 405.519 894.25 405.52ZM854.644 368.396C853.032 368.398 851.487 369.039 850.348 370.178C849.208 371.317 848.568 372.86 848.566 374.47V398.88C848.568 400.489 849.209 402.032 850.348 403.171C851.487 404.309 853.032 404.949 854.644 404.951H894.25C895.862 404.949 897.407 404.309 898.547 403.171C899.687 402.033 900.329 400.49 900.332 398.88V374.47C900.33 372.86 899.689 371.316 898.549 370.177C897.408 369.038 895.863 368.397 894.25 368.396H891.792C891.728 368.396 891.665 368.374 891.615 368.335C891.564 368.295 891.529 368.239 891.514 368.177C890.625 364.32 888.453 360.879 885.353 358.415C882.253 355.951 878.409 354.609 874.447 354.609C870.485 354.609 866.641 355.951 863.541 358.415C860.441 360.879 858.269 364.32 857.38 368.177C857.366 368.24 857.33 368.296 857.28 368.335C857.229 368.375 857.166 368.396 857.102 368.396H854.644ZM887.244 368.396H861.653C861.609 368.396 861.565 368.386 861.525 368.366C861.485 368.346 861.45 368.317 861.424 368.281C861.397 368.245 861.379 368.204 861.371 368.16C861.364 368.116 861.366 368.07 861.379 368.027C862.248 365.244 863.984 362.811 866.335 361.084C868.686 359.356 871.528 358.424 874.447 358.424C877.366 358.424 880.208 359.356 882.559 361.084C884.91 362.811 886.647 365.244 887.515 368.027C887.529 368.07 887.533 368.115 887.526 368.159C887.518 368.203 887.501 368.245 887.474 368.281C887.448 368.317 887.413 368.346 887.373 368.366C887.333 368.386 887.289 368.396 887.244 368.396V368.396ZM862.046 367.826H886.855C885.966 365.247 884.293 363.01 882.07 361.426C879.847 359.842 877.185 358.99 874.454 358.99C871.723 358.99 869.061 359.842 866.838 361.426C864.615 363.01 862.942 365.247 862.053 367.826H862.046Z" fill="#131F2D"/>
<path d="M898.107 364.249H860.795C857.025 364.249 853.969 367.301 853.969 371.066V394.556C853.969 398.321 857.025 401.373 860.795 401.373H898.107C901.876 401.373 904.932 398.321 904.932 394.556V371.066C904.932 367.301 901.876 364.249 898.107 364.249Z" fill="#131F2D"/>
<path d="M879.452 386.012C875.931 386.012 872.489 384.97 869.561 383.016C866.632 381.062 864.35 378.285 863.002 375.036C861.654 371.786 861.302 368.21 861.988 364.761C862.675 361.311 864.371 358.142 866.861 355.655C869.351 353.168 872.523 351.474 875.977 350.788C879.43 350.102 883.01 350.454 886.263 351.801C889.516 353.147 892.297 355.427 894.252 358.352C896.208 361.276 897.252 364.715 897.251 368.232C897.246 372.946 895.369 377.465 892.032 380.798C888.695 384.131 884.171 386.006 879.452 386.012V386.012ZM879.452 354.843C876.801 354.843 874.209 355.627 872.005 357.098C869.8 358.569 868.081 360.66 867.066 363.106C866.051 365.553 865.785 368.245 866.302 370.842C866.819 373.44 868.095 375.826 869.97 377.699C871.844 379.572 874.232 380.847 876.833 381.364C879.433 381.881 882.128 381.616 884.578 380.603C887.027 379.589 889.121 377.873 890.594 375.671C892.067 373.469 892.853 370.881 892.853 368.232C892.849 364.683 891.436 361.28 888.924 358.77C886.412 356.26 883.006 354.848 879.452 354.843V354.843Z" fill="#131F2D"/>
<path d="M879.452 384.261C878.96 384.26 878.489 384.064 878.141 383.717C877.793 383.369 877.597 382.898 877.596 382.406V373.414C877.597 372.923 877.793 372.452 878.141 372.104C878.489 371.756 878.96 371.561 879.452 371.56V371.56C879.944 371.562 880.415 371.758 880.762 372.105C881.109 372.453 881.305 372.923 881.306 373.414V382.406C881.305 382.897 881.109 383.368 880.762 383.716C880.415 384.063 879.944 384.259 879.452 384.261V384.261Z" fill="#00A3FE"/>
<path d="M879.452 392.413C882.216 392.413 884.456 390.175 884.456 387.415C884.456 384.654 882.216 382.417 879.452 382.417C876.689 382.417 874.449 384.654 874.449 387.415C874.449 390.175 876.689 392.413 879.452 392.413Z" fill="#00A3FE"/>
<path d="M970.453 257.299C970.343 257.299 970.235 257.273 970.137 257.223L963.002 253.66C962.918 253.619 962.842 253.562 962.781 253.493C962.719 253.423 962.672 253.341 962.642 253.253C962.613 253.164 962.601 253.071 962.609 252.978C962.616 252.885 962.642 252.794 962.685 252.711C962.726 252.627 962.783 252.552 962.853 252.49C962.923 252.429 963.004 252.382 963.093 252.352C963.181 252.323 963.275 252.311 963.368 252.319C963.461 252.326 963.552 252.352 963.635 252.395L970.78 255.952C970.938 256.012 971.068 256.127 971.148 256.275C971.227 256.424 971.249 256.597 971.21 256.761C971.172 256.925 971.075 257.069 970.937 257.167C970.8 257.265 970.631 257.309 970.464 257.292L970.453 257.299Z" fill="#131F2D"/>
<path d="M960.314 265.854C960.126 265.86 959.944 265.791 959.807 265.663C959.67 265.535 959.59 265.357 959.584 265.17C959.578 264.982 959.647 264.8 959.775 264.663C959.904 264.527 960.081 264.446 960.269 264.44L968.196 263.905C968.384 263.893 968.568 263.954 968.71 264.078C968.851 264.201 968.938 264.375 968.951 264.562C968.964 264.749 968.902 264.933 968.779 265.075C968.655 265.216 968.481 265.303 968.294 265.316L960.363 265.85L960.314 265.854Z" fill="#131F2D"/>
<path d="M964.799 277.725C964.639 277.734 964.481 277.688 964.351 277.594C964.221 277.5 964.128 277.364 964.087 277.209C964.046 277.054 964.06 276.89 964.127 276.744C964.193 276.598 964.308 276.48 964.452 276.409L971.347 272.363C971.427 272.316 971.515 272.285 971.607 272.272C971.699 272.259 971.792 272.264 971.882 272.288C971.972 272.311 972.056 272.352 972.13 272.407C972.204 272.463 972.266 272.533 972.313 272.613C972.36 272.692 972.391 272.781 972.404 272.872C972.417 272.964 972.412 273.058 972.388 273.147C972.365 273.237 972.324 273.321 972.269 273.395C972.213 273.469 972.143 273.531 972.063 273.578L965.171 277.624C965.059 277.691 964.93 277.726 964.799 277.725V277.725Z" fill="#131F2D"/>
<path d="M993.645 257.299C993.513 257.301 993.384 257.264 993.271 257.195C993.159 257.125 993.069 257.026 993.012 256.907C992.969 256.824 992.943 256.734 992.935 256.641C992.928 256.548 992.939 256.454 992.969 256.366C992.998 256.277 993.045 256.196 993.107 256.126C993.169 256.056 993.244 255.999 993.329 255.959L1000.47 252.402C1000.56 252.361 1000.65 252.336 1000.74 252.33C1000.83 252.324 1000.93 252.336 1001.01 252.365C1001.1 252.395 1001.18 252.441 1001.25 252.502C1001.32 252.563 1001.38 252.637 1001.42 252.72C1001.46 252.803 1001.49 252.893 1001.49 252.986C1001.5 253.078 1001.49 253.171 1001.46 253.259C1001.43 253.347 1001.38 253.428 1001.32 253.498C1001.26 253.568 1001.19 253.625 1001.1 253.666L993.947 257.216C993.854 257.266 993.751 257.295 993.645 257.299Z" fill="#131F2D"/>
<path d="M1003.78 265.854H1003.73L995.804 265.319C995.617 265.306 995.442 265.219 995.319 265.078C995.196 264.937 995.134 264.752 995.147 264.565C995.16 264.378 995.246 264.204 995.388 264.081C995.529 263.958 995.714 263.896 995.901 263.909L1003.83 264.444C1004.02 264.45 1004.19 264.53 1004.32 264.667C1004.45 264.804 1004.52 264.986 1004.51 265.173C1004.51 265.361 1004.43 265.538 1004.29 265.666C1004.15 265.795 1003.97 265.863 1003.78 265.857V265.854Z" fill="#131F2D"/>
<path d="M999.298 277.725C999.176 277.723 999.056 277.688 998.951 277.624L992.059 273.578C991.979 273.531 991.91 273.469 991.854 273.395C991.798 273.321 991.757 273.237 991.734 273.147C991.711 273.058 991.705 272.964 991.718 272.872C991.731 272.781 991.762 272.692 991.809 272.613C991.856 272.533 991.918 272.463 991.992 272.407C992.066 272.352 992.151 272.311 992.24 272.288C992.33 272.264 992.424 272.259 992.515 272.272C992.607 272.285 992.696 272.316 992.776 272.363L999.657 276.402C999.8 276.473 999.915 276.591 999.982 276.737C1000.05 276.883 1000.06 277.047 1000.02 277.202C999.98 277.357 999.887 277.493 999.757 277.587C999.627 277.681 999.469 277.727 999.309 277.718L999.298 277.725Z" fill="#131F2D"/>
<path d="M996.242 261.815C996.242 270.984 990.154 278.486 982.504 278.937C982.254 278.951 982.004 278.958 981.753 278.958C973.756 278.958 967.265 271.282 967.265 261.815C967.232 258.002 968.342 254.266 970.453 251.089C973.106 247.175 977.181 244.667 981.753 244.667C983.004 244.669 984.248 244.858 985.443 245.23C988.572 246.264 991.255 248.33 993.054 251.089C995.164 254.266 996.275 258.002 996.242 261.815V261.815Z" fill="#657285"/>
<path d="M996.242 261.814C996.242 270.984 990.154 278.486 982.504 278.937C981.515 276.105 980.807 273.183 980.39 270.212C979.514 264.051 979.886 258.209 981.228 253.458C982.178 250.075 983.621 247.241 985.442 245.23C988.571 246.264 991.255 248.33 993.054 251.089C995.164 254.266 996.275 258.002 996.242 261.814V261.814Z" fill="#657285"/>
<path d="M981.753 257.515C987.994 257.515 993.054 254.639 993.054 251.093C993.054 247.546 987.994 244.671 981.753 244.671C975.512 244.671 970.453 247.546 970.453 251.093C970.453 254.639 975.512 257.515 981.753 257.515Z" fill="#131F2D"/>
<path d="M978.582 246.897C978.398 246.897 978.221 246.824 978.091 246.694C977.96 246.563 977.887 246.387 977.887 246.203C977.755 240.836 972.8 238.662 972.748 238.641C972.575 238.568 972.439 238.428 972.368 238.254C972.298 238.08 972.3 237.885 972.374 237.712C972.448 237.54 972.587 237.403 972.762 237.333C972.936 237.263 973.131 237.265 973.304 237.339C973.544 237.443 979.149 239.902 979.299 246.168C979.303 246.261 979.287 246.355 979.254 246.442C979.221 246.53 979.17 246.61 979.105 246.677C979.04 246.745 978.962 246.798 978.876 246.835C978.79 246.871 978.697 246.89 978.603 246.89L978.582 246.897Z" fill="#131F2D"/>
<path d="M984.431 248.714C984.254 248.714 984.083 248.647 983.954 248.527C983.825 248.406 983.747 248.241 983.735 248.064C983.134 240.5 988.297 237.506 988.516 237.381C988.679 237.289 988.873 237.265 989.053 237.315C989.234 237.365 989.387 237.485 989.479 237.648C989.572 237.811 989.595 238.004 989.545 238.185C989.495 238.365 989.375 238.518 989.212 238.61C989.017 238.722 984.618 241.323 985.143 247.953C985.152 248.046 985.142 248.139 985.114 248.227C985.086 248.316 985.04 248.398 984.98 248.468C984.92 248.539 984.846 248.596 984.763 248.638C984.68 248.68 984.589 248.704 984.497 248.71L984.431 248.714Z" fill="#131F2D"/>
<g opacity="0.4">
<path d="M1024.29 305.476C1047.27 282.515 1047.27 245.286 1024.29 222.324C1001.3 199.363 964.031 199.363 941.044 222.324C918.056 245.286 918.056 282.515 941.043 305.476C964.031 328.438 1001.3 328.438 1024.29 305.476Z" fill="#00A3FE"/>
</g>
<path d="M1049.58 314.009C1049.58 314.009 1039.18 314.235 1036.33 309.682C1033.47 305.128 1038.31 301.166 1038.31 301.166L1053.79 309.525L1049.58 314.009Z" fill="#FF7955"/>
<path d="M1033.37 290.195L1028.84 297.497L1143.66 368.526L1148.19 361.224L1033.37 290.195Z" fill="#131F2D"/>
<path d="M1149.3 364.249L1146.84 368.215C1146.37 368.972 1145.61 369.512 1144.75 369.716C1143.88 369.92 1142.97 369.771 1142.21 369.302L1082.31 332.243C1081.55 331.774 1081.01 331.023 1080.81 330.155C1080.6 329.288 1080.75 328.375 1081.22 327.617L1083.68 323.651C1084.15 322.894 1084.9 322.354 1085.77 322.15C1086.64 321.946 1087.55 322.095 1088.31 322.564L1148.21 359.622C1148.97 360.092 1149.51 360.843 1149.71 361.711C1149.92 362.578 1149.77 363.491 1149.3 364.249Z" fill="#131F2D"/>
<path d="M930.279 231.487C923.862 241.836 920.66 253.855 921.081 266.022C921.501 278.189 925.523 289.958 932.64 299.842C939.756 309.725 949.647 317.279 961.061 321.547C972.475 325.816 984.9 326.607 996.765 323.822C1008.63 321.037 1019.4 314.8 1027.72 305.9C1036.03 297 1041.52 285.837 1043.48 273.822C1045.45 261.807 1043.8 249.48 1038.75 238.399C1033.7 227.319 1025.48 217.983 1015.12 211.571C1008.24 207.314 1000.59 204.453 992.6 203.15C984.614 201.847 976.448 202.128 968.57 203.977C960.692 205.826 953.255 209.208 946.685 213.928C940.116 218.648 934.541 224.614 930.279 231.487V231.487ZM1030.46 293.469C1024.6 302.911 1016.07 310.407 1005.95 315.008C995.833 319.61 984.574 321.11 973.601 319.32C962.627 317.53 952.431 312.529 944.302 304.95C936.173 297.372 930.477 287.556 927.933 276.743C925.39 265.931 926.113 254.608 930.011 244.206C933.91 233.804 940.809 224.791 949.836 218.306C958.863 211.82 969.613 208.155 980.726 207.772C991.838 207.39 1002.81 210.307 1012.27 216.156C1018.54 220.039 1023.99 225.119 1028.3 231.106C1032.62 237.093 1035.7 243.87 1037.39 251.049C1039.08 258.229 1039.34 265.67 1038.15 272.948C1036.96 280.227 1034.34 287.2 1030.46 293.469Z" fill="#131F2D"/>
<path d="M1142.53 327.134C1139.75 306.334 1116.4 294.584 1116.4 294.584C1116.4 294.584 1118.38 340.94 1122.37 339.572C1129.2 337.231 1138.56 337.182 1142.53 327.134Z" fill="#00A3FE"/>
<path d="M1096.9 444.059C1096.9 444.059 1096.72 447.532 1094.37 448.463C1092.02 449.393 1085.26 450.085 1087.72 452.391C1089.13 453.717 1095.96 453.085 1097.88 453.124C1099.8 453.162 1101.58 454.075 1103.05 452.811C1104.66 451.422 1103.28 444.236 1103.28 444.236C1103.28 444.236 1101.59 445.066 1100.1 444.986C1097.96 444.871 1096.9 444.059 1096.9 444.059Z" fill="#131F2D"/>
<path d="M1080.04 356.285C1080.49 363.512 1081.34 372.893 1082.91 384.369C1085.9 406.25 1089.53 428.301 1091.32 438.877C1091.6 440.684 1092.48 442.345 1093.82 443.592C1095.16 444.839 1096.88 445.599 1098.7 445.75L1100.69 445.886C1104.68 446.156 1108.02 442.76 1107.84 438.613L1104.71 367.305L1104.41 355.962C1104.41 355.962 1079.3 344.431 1080.04 356.285Z" fill="#364154"/>
<path d="M1118.92 444.663C1118.92 444.663 1118.74 448.136 1116.39 449.063C1114.04 449.991 1107.28 450.685 1109.74 452.995C1111.15 454.318 1117.97 453.69 1119.9 453.728C1121.82 453.766 1123.6 454.68 1125.06 453.412C1126.67 452.023 1125.29 444.837 1125.29 444.837C1125.29 444.837 1123.61 445.667 1122.12 445.587C1119.97 445.472 1118.92 444.663 1118.92 444.663Z" fill="#131F2D"/>
<path d="M1101.66 338.968C1101.66 338.968 1100.78 354.68 1104.92 384.977C1107.92 406.858 1111.55 428.909 1113.34 439.485C1113.62 441.292 1114.5 442.954 1115.83 444.201C1117.17 445.448 1118.89 446.208 1120.72 446.358L1122.71 446.493C1126.7 446.764 1130.04 443.368 1129.85 439.221L1126.72 367.913L1126.11 344.455L1101.66 338.968Z" fill="#364154"/>
<path d="M1105.91 391.145L1105.61 391.103C1105.61 390.975 1107.32 378.096 1108.6 373.473C1109.88 368.851 1115.83 364.791 1115.9 364.738L1116.07 364.992C1116.02 365.03 1110.16 368.997 1108.9 373.553C1107.64 378.11 1105.91 391.016 1105.91 391.145Z" fill="#131F2D"/>
<path d="M1105.98 290.67L1104.44 285.97L1103.99 284.602L1101.34 276.555L1100.99 284.543L1100.78 289.35L1100.72 290.871C1100.67 291.913 1100 292.118 1099.19 293.018C1098.86 293.365 1096.76 295.584 1099.15 296.578C1102.13 297.821 1107.7 295.942 1109.82 293.479C1109.8 293.49 1106.48 292.191 1105.98 290.67Z" fill="#FF7955"/>
<path d="M1109.13 280.942C1110.03 276.259 1107.42 271.825 1103.3 271.039C1099.19 270.253 1095.13 273.412 1094.23 278.096C1093.34 282.78 1095.94 287.214 1100.06 288C1104.17 288.786 1108.23 285.626 1109.13 280.942Z" fill="#FF7955"/>
<path d="M1097.47 276.555C1093.13 276.708 1091.02 274.349 1090.97 272.165C1090.91 269.362 1092.78 266.882 1094.96 267.924C1097.14 268.966 1096.21 266.41 1098.3 266.139C1102.22 265.632 1102.96 268.257 1106.16 268.386C1110.39 268.552 1115.2 275.19 1111.67 280.035C1111.67 280.035 1100.9 276.433 1097.47 276.555Z" fill="#131F2D"/>
<path d="M1093.6 273.727C1093.6 273.727 1098.24 277.933 1097.63 280.302C1097.02 282.671 1097.17 283.595 1099.88 284.859C1102.59 286.123 1100.2 288.169 1103.81 288.332C1107.42 288.495 1111.84 284.463 1111.84 277.857C1111.82 275.627 1111.03 273.473 1109.59 271.765L1093.6 273.727Z" fill="#131F2D"/>
<path d="M1095.29 280.198C1095.52 279.863 1095.88 279.628 1096.28 279.541C1096.68 279.453 1097.09 279.519 1097.45 279.726C1097.61 279.841 1097.74 279.988 1097.84 280.158C1097.94 280.328 1098.01 280.516 1098.03 280.712C1098.06 280.908 1098.04 281.106 1097.98 281.295C1097.93 281.484 1097.83 281.659 1097.7 281.81C1097.47 282.145 1097.11 282.379 1096.71 282.466C1096.31 282.553 1095.9 282.486 1095.54 282.278C1095.38 282.164 1095.25 282.017 1095.15 281.848C1095.05 281.678 1094.98 281.49 1094.96 281.294C1094.93 281.098 1094.95 280.9 1095.01 280.711C1095.06 280.522 1095.16 280.348 1095.29 280.198Z" fill="#FFB27D"/>
<path d="M1113.41 281.858C1113.39 281.857 1113.36 281.848 1113.34 281.833C1113.32 281.817 1113.31 281.796 1113.3 281.771C1113.11 281.186 1112.72 280.692 1112.18 280.382C1112.17 280.376 1112.16 280.367 1112.15 280.356C1112.14 280.345 1112.14 280.332 1112.13 280.318C1112.13 280.304 1112.13 280.29 1112.13 280.276C1112.13 280.262 1112.13 280.248 1112.14 280.236C1112.15 280.224 1112.16 280.212 1112.17 280.203C1112.18 280.194 1112.19 280.187 1112.21 280.183C1112.22 280.179 1112.23 280.178 1112.25 280.179C1112.26 280.18 1112.28 280.184 1112.29 280.191C1112.88 280.533 1113.32 281.085 1113.52 281.737C1113.52 281.751 1113.52 281.765 1113.52 281.779C1113.52 281.793 1113.51 281.807 1113.5 281.819C1113.5 281.832 1113.49 281.842 1113.47 281.851C1113.46 281.859 1113.45 281.865 1113.44 281.869L1113.41 281.858Z" fill="#131F2D"/>
<path d="M1112.24 279.875C1112.21 279.875 1112.18 279.865 1112.16 279.846C1112.14 279.827 1112.13 279.801 1112.13 279.774C1112.13 279.76 1112.13 279.746 1112.13 279.732C1112.14 279.719 1112.14 279.707 1112.15 279.696C1112.16 279.685 1112.18 279.677 1112.19 279.67C1112.2 279.664 1112.21 279.66 1112.23 279.66C1112.23 279.66 1113.41 279.58 1113.58 278.725C1113.59 278.697 1113.61 278.672 1113.63 278.656C1113.65 278.64 1113.68 278.633 1113.71 278.638C1113.74 278.644 1113.76 278.661 1113.78 278.685C1113.8 278.709 1113.8 278.738 1113.8 278.767C1113.59 279.785 1112.3 279.871 1112.24 279.875H1112.24Z" fill="#131F2D"/>
<path d="M1095.62 267.757C1095.54 267.757 1095.46 267.746 1095.39 267.722C1095.07 267.623 1094.77 267.473 1094.5 267.278C1094.25 267.07 1093.95 266.931 1093.63 266.876C1093.32 266.821 1092.99 266.852 1092.69 266.965C1092.67 266.97 1092.66 266.971 1092.65 266.97C1092.63 266.968 1092.62 266.964 1092.6 266.957C1092.59 266.951 1092.58 266.941 1092.57 266.93C1092.56 266.919 1092.56 266.906 1092.55 266.892C1092.55 266.879 1092.55 266.864 1092.55 266.85C1092.55 266.836 1092.55 266.822 1092.56 266.809C1092.57 266.797 1092.58 266.786 1092.59 266.777C1092.6 266.768 1092.61 266.761 1092.63 266.757C1092.96 266.636 1093.32 266.605 1093.67 266.666C1094.02 266.727 1094.34 266.878 1094.61 267.104C1094.87 267.287 1095.15 267.427 1095.45 267.521C1095.52 267.546 1095.6 267.554 1095.68 267.542C1095.76 267.531 1095.84 267.501 1095.91 267.455C1096.38 267.132 1096.5 266.066 1096.5 266.066C1096.5 266.038 1096.52 266.012 1096.54 265.994C1096.56 265.976 1096.59 265.967 1096.62 265.969C1096.63 265.97 1096.65 265.974 1096.66 265.981C1096.67 265.988 1096.68 265.997 1096.69 266.009C1096.7 266.02 1096.71 266.033 1096.71 266.047C1096.72 266.061 1096.72 266.076 1096.71 266.09C1096.71 266.135 1096.59 267.25 1096.02 267.632C1095.9 267.714 1095.76 267.758 1095.62 267.757Z" fill="#131F2D"/>
<path d="M1105.83 268.038C1104.81 267.993 1103.83 267.607 1103.05 266.941C1103.04 266.932 1103.03 266.921 1103.02 266.908C1103.01 266.895 1103.01 266.88 1103 266.865C1103 266.85 1103 266.835 1103.01 266.82C1103.01 266.806 1103.02 266.793 1103.03 266.781C1103.04 266.77 1103.05 266.761 1103.07 266.755C1103.08 266.749 1103.1 266.745 1103.11 266.745C1103.13 266.745 1103.14 266.748 1103.16 266.755C1103.17 266.761 1103.18 266.77 1103.19 266.781C1103.19 266.781 1104.63 268.042 1106.29 267.788C1106.32 267.784 1106.35 267.792 1106.37 267.808C1106.4 267.825 1106.41 267.851 1106.42 267.879C1106.42 267.907 1106.41 267.936 1106.4 267.959C1106.38 267.983 1106.35 267.999 1106.32 268.004C1106.16 268.027 1106 268.039 1105.83 268.038V268.038Z" fill="#131F2D"/>
<path d="M1096.45 282.577C1096.35 282.58 1096.25 282.567 1096.15 282.539C1096.14 282.538 1096.14 282.535 1096.13 282.531C1096.12 282.527 1096.12 282.522 1096.11 282.515C1096.11 282.509 1096.11 282.502 1096.11 282.494C1096.1 282.486 1096.1 282.479 1096.11 282.471C1096.11 282.464 1096.11 282.457 1096.12 282.451C1096.12 282.446 1096.13 282.441 1096.14 282.439C1096.14 282.436 1096.15 282.435 1096.16 282.435C1096.17 282.436 1096.18 282.438 1096.18 282.442C1096.22 282.442 1097.16 282.737 1097.83 281.487C1097.83 281.48 1097.84 281.475 1097.84 281.47C1097.85 281.466 1097.85 281.463 1097.86 281.461C1097.87 281.459 1097.87 281.458 1097.88 281.459C1097.89 281.46 1097.89 281.462 1097.9 281.466C1097.91 281.472 1097.92 281.483 1097.92 281.496C1097.93 281.509 1097.93 281.523 1097.92 281.535C1097.44 282.428 1096.82 282.577 1096.45 282.577Z" fill="#131F2D"/>
<path d="M1080.04 356.285C1080.04 356.285 1111.53 354.548 1126.47 358.191L1126.7 353.871L1105.74 347.602L1088.82 348.022L1083.63 349.147L1079.96 354.895L1080.04 356.285Z" fill="#131F2D"/>
<path d="M1123.68 303.663C1123.68 303.663 1120.9 291.576 1103.95 291.576C1074.4 291.576 1082.69 316.017 1079.96 354.878C1079.96 354.878 1099.01 350.689 1126.57 356.267C1126.57 356.267 1129.26 335.223 1125.79 317.434C1124.87 312.731 1125.03 307.747 1123.68 303.663Z" fill="#00A3FE"/>
<path d="M1100.55 291.576C1100.55 291.576 1091.07 291.715 1084.02 298.463C1076.98 305.212 1067.9 314.503 1065.97 319.848C1063.6 326.447 1067.97 333.046 1073.51 333.178C1079.05 333.31 1084.02 329.243 1084.02 329.243L1100.55 291.576Z" fill="#00A3FE"/>
<path d="M1127.47 346.782H1127.26C1128.08 331.538 1125.42 315.933 1125.39 315.777L1125.6 315.742C1125.61 315.888 1128.28 331.518 1127.47 346.782Z" fill="#131F2D"/>
<path d="M1080.74 331.434L1080.63 331.257C1086.2 327.923 1093.45 319.146 1093.52 319.056L1093.68 319.191C1093.61 319.278 1086.34 328.086 1080.74 331.434Z" fill="#131F2D"/>
<path d="M1042.06 315.749C1041.99 320.06 1063.36 335.814 1076.18 333.181C1089.81 330.403 1072.99 315.239 1072.99 315.239L1047.87 309.463C1047.87 309.463 1042.13 311.384 1042.06 315.749Z" fill="#00A3FE"/>
<path d="M1047.87 309.463C1047.94 308.961 1047.89 308.45 1047.71 307.974C1047.54 307.497 1047.25 307.071 1046.88 306.73C1045.59 305.594 1044.25 300.415 1043.4 301.714C1042.56 303.013 1043.34 307.146 1042.06 307.591C1040.78 308.035 1047.87 309.463 1047.87 309.463Z" fill="#FF7955"/>
<path d="M1057.27 217.358H1056.01C1055.84 217.358 1055.68 217.423 1055.57 217.539C1055.45 217.655 1055.39 217.812 1055.39 217.976V223.533C1055.39 223.698 1055.32 223.856 1055.2 223.973C1055.09 224.089 1054.93 224.155 1054.76 224.155H1054.32C1054.15 224.154 1054 224.088 1053.88 223.972C1053.77 223.855 1053.7 223.697 1053.7 223.533V217.976C1053.7 217.812 1053.63 217.655 1053.52 217.539C1053.4 217.423 1053.24 217.358 1053.08 217.358H1051.85C1051.68 217.358 1051.52 217.292 1051.41 217.176C1051.29 217.059 1051.22 216.901 1051.22 216.736V216.615C1051.22 216.45 1051.29 216.292 1051.41 216.175C1051.52 216.058 1051.68 215.993 1051.85 215.993H1057.27C1057.44 215.993 1057.59 216.058 1057.71 216.175C1057.83 216.292 1057.89 216.45 1057.89 216.615V216.736C1057.89 216.901 1057.83 217.059 1057.71 217.176C1057.59 217.292 1057.44 217.358 1057.27 217.358V217.358Z" fill="#00A3FE"/>
<path d="M1063.14 220.612H1061.14C1060.98 220.612 1060.82 220.678 1060.71 220.794C1060.59 220.909 1060.53 221.067 1060.53 221.231V222.179C1060.53 222.343 1060.59 222.501 1060.71 222.617C1060.82 222.734 1060.98 222.8 1061.14 222.801H1063.7C1063.78 222.801 1063.87 222.817 1063.94 222.848C1064.02 222.879 1064.08 222.925 1064.14 222.983C1064.2 223.041 1064.25 223.109 1064.28 223.185C1064.31 223.26 1064.32 223.341 1064.32 223.422V223.533C1064.32 223.615 1064.31 223.696 1064.28 223.771C1064.25 223.846 1064.2 223.915 1064.14 223.973C1064.08 224.031 1064.02 224.076 1063.94 224.108C1063.87 224.139 1063.78 224.155 1063.7 224.155H1059.46C1059.3 224.155 1059.14 224.09 1059.02 223.973C1058.9 223.856 1058.84 223.698 1058.84 223.533V216.587C1058.84 216.422 1058.9 216.264 1059.02 216.147C1059.14 216.031 1059.3 215.965 1059.46 215.965H1063.69C1063.86 215.966 1064.01 216.032 1064.13 216.149C1064.25 216.265 1064.31 216.423 1064.31 216.587V216.709C1064.31 216.873 1064.25 217.03 1064.13 217.147C1064.01 217.263 1063.86 217.329 1063.69 217.33H1061.14C1060.98 217.33 1060.82 217.395 1060.71 217.511C1060.59 217.627 1060.53 217.785 1060.53 217.949V218.643C1060.53 218.807 1060.59 218.965 1060.71 219.082C1060.82 219.198 1060.98 219.264 1061.14 219.265H1063.14C1063.3 219.265 1063.46 219.33 1063.58 219.446C1063.7 219.562 1063.76 219.719 1063.76 219.883V219.963C1063.77 220.047 1063.75 220.131 1063.72 220.209C1063.69 220.288 1063.65 220.36 1063.59 220.421C1063.53 220.481 1063.46 220.53 1063.38 220.563C1063.31 220.596 1063.22 220.613 1063.14 220.612V220.612Z" fill="#00A3FE"/>
<path d="M1069.57 222.008C1069.57 221.878 1069.55 221.747 1069.51 221.623C1069.46 221.498 1069.38 221.389 1069.27 221.307C1069.12 221.191 1068.95 221.095 1068.78 221.022C1068.52 220.907 1068.25 220.807 1067.97 220.723C1067.62 220.609 1067.27 220.475 1066.93 220.32C1066.62 220.183 1066.32 220.004 1066.06 219.789C1065.82 219.598 1065.62 219.362 1065.47 219.094C1065.32 218.805 1065.25 218.486 1065.25 218.162C1065.25 217.838 1065.32 217.519 1065.47 217.229C1065.62 216.944 1065.83 216.696 1066.09 216.507C1066.38 216.298 1066.7 216.14 1067.04 216.041C1067.44 215.93 1067.85 215.875 1068.26 215.878C1068.68 215.873 1069.1 215.936 1069.5 216.066C1069.85 216.178 1070.17 216.356 1070.45 216.59C1070.71 216.809 1070.91 217.082 1071.05 217.389C1071.09 217.456 1071.11 217.522 1071.14 217.587C1071.17 217.68 1071.18 217.78 1071.16 217.877C1071.15 217.974 1071.11 218.066 1071.05 218.146C1070.99 218.226 1070.92 218.29 1070.83 218.335C1070.74 218.38 1070.64 218.403 1070.55 218.403H1070.09C1069.96 218.402 1069.84 218.36 1069.73 218.283C1069.62 218.206 1069.54 218.097 1069.5 217.973C1069.5 217.973 1069.5 217.941 1069.5 217.927C1069.45 217.784 1069.36 217.655 1069.25 217.549C1069.13 217.44 1068.99 217.357 1068.83 217.306C1068.64 217.243 1068.44 217.214 1068.23 217.219C1068.04 217.216 1067.84 217.24 1067.66 217.292C1067.51 217.334 1067.37 217.402 1067.25 217.493C1067.15 217.574 1067.07 217.679 1067.01 217.799C1066.96 217.914 1066.93 218.04 1066.93 218.167C1066.93 218.309 1066.97 218.449 1067.04 218.571C1067.11 218.693 1067.22 218.793 1067.34 218.862C1067.72 219.087 1068.13 219.258 1068.55 219.369C1068.96 219.491 1069.35 219.646 1069.73 219.831C1070.04 219.978 1070.33 220.171 1070.58 220.404C1070.8 220.606 1070.97 220.851 1071.1 221.123C1071.22 221.409 1071.27 221.716 1071.27 222.026C1071.28 222.358 1071.2 222.686 1071.06 222.984C1070.92 223.26 1070.71 223.498 1070.46 223.679C1070.18 223.883 1069.86 224.032 1069.52 224.12C1069.13 224.229 1068.71 224.281 1068.3 224.276C1068.03 224.276 1067.76 224.252 1067.49 224.207C1067.23 224.161 1066.97 224.088 1066.72 223.988C1066.47 223.9 1066.24 223.783 1066.02 223.641C1065.82 223.497 1065.63 223.324 1065.47 223.127C1065.32 222.922 1065.19 222.693 1065.11 222.449V222.411C1065.08 222.318 1065.07 222.22 1065.09 222.124C1065.1 222.028 1065.14 221.938 1065.2 221.859C1065.26 221.781 1065.34 221.718 1065.42 221.674C1065.51 221.631 1065.61 221.608 1065.7 221.609H1066.14C1066.27 221.609 1066.4 221.654 1066.51 221.736C1066.62 221.818 1066.7 221.933 1066.74 222.064C1066.75 222.123 1066.77 222.182 1066.8 222.238C1066.87 222.402 1066.98 222.547 1067.12 222.658C1067.28 222.768 1067.45 222.847 1067.64 222.891C1067.85 222.941 1068.07 222.966 1068.3 222.964C1068.49 222.966 1068.68 222.943 1068.87 222.894C1069.01 222.855 1069.14 222.789 1069.26 222.7C1069.37 222.622 1069.45 222.521 1069.5 222.404C1069.55 222.279 1069.58 222.144 1069.57 222.008V222.008Z" fill="#00A3FE"/>
<path d="M1077.94 217.358H1076.68C1076.51 217.358 1076.35 217.423 1076.24 217.539C1076.12 217.655 1076.06 217.812 1076.06 217.976V223.533C1076.06 223.698 1075.99 223.856 1075.87 223.973C1075.76 224.09 1075.6 224.155 1075.43 224.155H1074.99C1074.83 224.154 1074.67 224.088 1074.55 223.972C1074.44 223.855 1074.37 223.698 1074.37 223.533V217.976C1074.37 217.812 1074.3 217.655 1074.19 217.539C1074.07 217.423 1073.91 217.358 1073.75 217.358H1072.53C1072.36 217.357 1072.21 217.291 1072.09 217.175C1071.97 217.058 1071.91 216.901 1071.91 216.736V216.615C1071.91 216.531 1071.92 216.448 1071.95 216.37C1071.98 216.292 1072.02 216.221 1072.08 216.161C1072.14 216.1 1072.21 216.052 1072.29 216.019C1072.36 215.986 1072.44 215.969 1072.53 215.969H1077.95C1078.12 215.969 1078.28 216.034 1078.39 216.151C1078.51 216.267 1078.57 216.426 1078.57 216.59V216.712C1078.58 216.797 1078.56 216.881 1078.53 216.96C1078.5 217.039 1078.46 217.111 1078.4 217.171C1078.34 217.232 1078.27 217.279 1078.19 217.312C1078.11 217.344 1078.03 217.36 1077.94 217.358V217.358Z" fill="#00A3FE"/>
<path d="M1080.7 224.155H1080.25C1080.09 224.154 1079.93 224.088 1079.81 223.972C1079.7 223.855 1079.63 223.698 1079.63 223.533V216.587C1079.63 216.423 1079.7 216.265 1079.81 216.149C1079.93 216.032 1080.09 215.966 1080.25 215.965H1080.7C1080.86 215.965 1081.02 216.031 1081.14 216.147C1081.25 216.264 1081.32 216.422 1081.32 216.587V223.533C1081.32 223.698 1081.25 223.856 1081.14 223.973C1081.02 224.09 1080.86 224.155 1080.7 224.155Z" fill="#00A3FE"/>
<path d="M1088.91 224.155H1088.2C1088.09 224.155 1087.98 224.127 1087.89 224.075C1087.8 224.023 1087.72 223.947 1087.67 223.856L1085.72 220.661C1085.65 220.547 1085.54 220.459 1085.41 220.41C1085.29 220.361 1085.15 220.354 1085.02 220.391C1084.89 220.427 1084.78 220.505 1084.69 220.612C1084.61 220.719 1084.57 220.849 1084.57 220.984V223.533C1084.57 223.698 1084.5 223.856 1084.38 223.973C1084.27 224.09 1084.11 224.155 1083.94 224.155H1083.5C1083.34 224.155 1083.18 224.09 1083.06 223.973C1082.94 223.856 1082.88 223.698 1082.88 223.533V216.587C1082.88 216.422 1082.94 216.264 1083.06 216.147C1083.18 216.031 1083.34 215.965 1083.5 215.965H1084.22C1084.32 215.966 1084.43 215.993 1084.52 216.045C1084.61 216.098 1084.69 216.173 1084.75 216.264L1086.7 219.466C1086.77 219.582 1086.88 219.672 1087 219.722C1087.13 219.771 1087.27 219.779 1087.4 219.743C1087.53 219.707 1087.64 219.629 1087.73 219.521C1087.81 219.414 1087.85 219.282 1087.85 219.147V216.587C1087.85 216.423 1087.92 216.265 1088.04 216.149C1088.15 216.032 1088.31 215.966 1088.47 215.965H1088.91C1089.08 215.965 1089.24 216.031 1089.35 216.147C1089.47 216.264 1089.53 216.422 1089.53 216.587V223.533C1089.53 223.698 1089.47 223.856 1089.35 223.973C1089.24 224.09 1089.08 224.155 1088.91 224.155Z" fill="#00A3FE"/>
<path d="M1097.48 222.87C1097.48 222.957 1097.46 223.043 1097.43 223.123C1097.39 223.202 1097.34 223.274 1097.27 223.332C1097.22 223.384 1097.15 223.439 1097.08 223.495C1096.89 223.642 1096.67 223.765 1096.45 223.863C1096.16 223.989 1095.86 224.086 1095.55 224.151C1095.15 224.232 1094.75 224.271 1094.35 224.266C1093.86 224.272 1093.36 224.184 1092.9 224.005C1092.48 223.838 1092.09 223.575 1091.78 223.238C1091.46 222.878 1091.21 222.456 1091.06 221.998C1090.88 221.455 1090.79 220.885 1090.8 220.313V219.831C1090.79 219.258 1090.88 218.689 1091.05 218.143C1091.2 217.685 1091.43 217.262 1091.75 216.899C1092.04 216.564 1092.41 216.301 1092.83 216.132C1093.28 215.951 1093.76 215.861 1094.24 215.868C1094.71 215.857 1095.18 215.924 1095.63 216.066C1095.99 216.182 1096.32 216.372 1096.6 216.625C1096.86 216.865 1097.07 217.157 1097.21 217.483C1097.25 217.574 1097.29 217.668 1097.32 217.764C1097.35 217.858 1097.36 217.957 1097.34 218.054C1097.33 218.151 1097.29 218.243 1097.23 218.323C1097.17 218.403 1097.1 218.468 1097.01 218.512C1096.92 218.557 1096.83 218.58 1096.73 218.58H1096.34C1096.21 218.579 1096.08 218.536 1095.97 218.459C1095.87 218.382 1095.79 218.273 1095.75 218.15L1095.7 218.021C1095.63 217.86 1095.53 217.714 1095.41 217.594C1095.28 217.471 1095.12 217.377 1094.95 217.32C1094.74 217.253 1094.52 217.221 1094.3 217.226C1094.04 217.213 1093.79 217.266 1093.56 217.38C1093.33 217.494 1093.13 217.666 1092.99 217.879C1092.65 218.467 1092.49 219.143 1092.53 219.82V220.313C1092.49 220.996 1092.66 221.676 1093.03 222.255C1093.19 222.47 1093.4 222.643 1093.65 222.758C1093.89 222.873 1094.16 222.927 1094.43 222.915C1094.61 222.918 1094.79 222.905 1094.96 222.877C1095.09 222.856 1095.22 222.823 1095.35 222.779C1095.44 222.745 1095.53 222.702 1095.61 222.651C1095.68 222.61 1095.73 222.564 1095.79 222.512V221.724C1095.79 221.559 1095.72 221.401 1095.61 221.284C1095.49 221.167 1095.33 221.102 1095.17 221.102H1094.87C1094.71 221.102 1094.55 221.037 1094.44 220.921C1094.32 220.805 1094.25 220.648 1094.25 220.484V220.484C1094.25 220.319 1094.32 220.161 1094.43 220.044C1094.55 219.927 1094.71 219.862 1094.87 219.862H1096.87C1096.95 219.862 1097.03 219.878 1097.1 219.909C1097.18 219.941 1097.25 219.986 1097.31 220.044C1097.36 220.102 1097.41 220.171 1097.44 220.246C1097.47 220.321 1097.49 220.402 1097.49 220.484L1097.48 222.87Z" fill="#00A3FE"/>
<rect width="603" height="228" transform="translate(242 728)" fill="white"/>
<path d="M782.085 867V881.406H761.378C763.565 874.668 769.116 869.503 776.079 867.866C778.059 867.4 780.068 867.112 782.085 867Z" fill="#FCA311"/>
<path d="M782.085 867V881.406H761.378C763.565 874.668 769.116 869.503 776.079 867.866C778.059 867.4 780.068 867.112 782.085 867Z" fill="url(#paint0_linear_0_1)"/>
<path d="M785.915 867V896.756H807.521C808.282 892.215 808.136 887.56 807.083 883.062C805.319 875.522 799.444 869.634 791.921 867.866C789.942 867.4 787.932 867.112 785.915 867Z" fill="#FCA311"/>
<path d="M785.915 867V896.756H807.521C808.282 892.215 808.136 887.56 807.083 883.062C805.319 875.522 799.444 869.634 791.921 867.866C789.942 867.4 787.932 867.112 785.915 867Z" fill="url(#paint1_linear_0_1)"/>
<path d="M806.622 900.594H785.915V915C787.932 914.888 789.942 914.6 791.921 914.134C798.884 912.497 804.435 907.332 806.622 900.594Z" fill="#FCA311"/>
<path d="M806.622 900.594H785.915V915C787.932 914.888 789.942 914.6 791.921 914.134C798.884 912.497 804.435 907.332 806.622 900.594Z" fill="url(#paint2_linear_0_1)"/>
<path d="M782.085 915V885.244H760.479C759.718 889.785 759.864 894.44 760.917 898.938C762.681 906.478 768.556 912.366 776.079 914.134C778.059 914.6 780.068 914.888 782.085 915Z" fill="#FCA311"/>
<path d="M782.085 915V885.244H760.479C759.718 889.785 759.864 894.44 760.917 898.938C762.681 906.478 768.556 912.366 776.079 914.134C778.059 914.6 780.068 914.888 782.085 915Z" fill="url(#paint3_linear_0_1)"/>
<path d="M652.843 867.416C650.479 866.861 648.019 866.861 645.655 867.416C642.559 868.142 640.142 870.559 639.416 873.655C638.861 876.019 638.861 878.479 639.416 880.843C640.142 883.939 642.559 886.357 645.655 887.083C648.019 887.637 650.479 887.637 652.843 887.083C655.939 886.357 658.357 883.939 659.083 880.843C659.637 878.479 659.637 876.019 659.083 873.655C658.357 870.559 655.939 868.142 652.843 867.416Z" fill="#FCA311"/>
<path d="M652.843 867.416C650.479 866.861 648.019 866.861 645.655 867.416C642.559 868.142 640.142 870.559 639.416 873.655C638.861 876.019 638.861 878.479 639.416 880.843C640.142 883.939 642.559 886.357 645.655 887.083C648.019 887.637 650.479 887.637 652.843 887.083C655.939 886.357 658.357 883.939 659.083 880.843C659.637 878.479 659.637 876.019 659.083 873.655C658.357 870.559 655.939 868.142 652.843 867.416Z" fill="url(#paint4_linear_0_1)"/>
<path d="M652.843 894.917C650.479 894.363 648.019 894.363 645.655 894.917C642.559 895.643 640.142 898.061 639.416 901.157C638.861 903.521 638.861 905.981 639.416 908.345C640.142 911.441 642.559 913.858 645.655 914.584C648.019 915.139 650.479 915.139 652.843 914.584C655.939 913.858 658.357 911.441 659.083 908.345C659.637 905.981 659.637 903.521 659.083 901.157C658.357 898.061 655.939 895.643 652.843 894.917Z" fill="#FCA311"/>
<path d="M652.843 894.917C650.479 894.363 648.019 894.363 645.655 894.917C642.559 895.643 640.142 898.061 639.416 901.157C638.861 903.521 638.861 905.981 639.416 908.345C640.142 911.441 642.559 913.858 645.655 914.584C648.019 915.139 650.479 915.139 652.843 914.584C655.939 913.858 658.357 911.441 659.083 908.345C659.637 905.981 659.637 903.521 659.083 901.157C658.357 898.061 655.939 895.643 652.843 894.917Z" fill="url(#paint5_linear_0_1)"/>
<path d="M680.345 867.416C677.981 866.861 675.521 866.861 673.157 867.416C670.061 868.142 667.643 870.559 666.917 873.655C666.363 876.019 666.363 878.479 666.917 880.843C667.643 883.939 670.061 886.357 673.157 887.083C675.521 887.637 677.981 887.637 680.345 887.083C683.441 886.357 685.858 883.939 686.584 880.843C687.139 878.479 687.139 876.019 686.584 873.655C685.858 870.559 683.441 868.142 680.345 867.416Z" fill="#FCA311"/>
<path d="M680.345 867.416C677.981 866.861 675.521 866.861 673.157 867.416C670.061 868.142 667.643 870.559 666.917 873.655C666.363 876.019 666.363 878.479 666.917 880.843C667.643 883.939 670.061 886.357 673.157 887.083C675.521 887.637 677.981 887.637 680.345 887.083C683.441 886.357 685.858 883.939 686.584 880.843C687.139 878.479 687.139 876.019 686.584 873.655C685.858 870.559 683.441 868.142 680.345 867.416Z" fill="url(#paint6_linear_0_1)"/>
<path d="M680.345 894.917C677.981 894.363 675.521 894.363 673.157 894.917C670.061 895.643 667.643 898.061 666.917 901.157C666.363 903.521 666.363 905.981 666.917 908.345C667.643 911.441 670.061 913.858 673.157 914.584C675.521 915.139 677.981 915.139 680.345 914.584C683.441 913.858 685.858 911.441 686.584 908.345C687.139 905.981 687.139 903.521 686.584 901.157C685.858 898.061 683.441 895.643 680.345 894.917Z" fill="#FCA311"/>
<path d="M680.345 894.917C677.981 894.363 675.521 894.363 673.157 894.917C670.061 895.643 667.643 898.061 666.917 901.157C666.363 903.521 666.363 905.981 666.917 908.345C667.643 911.441 670.061 913.858 673.157 914.584C675.521 915.139 677.981 915.139 680.345 914.584C683.441 913.858 685.858 911.441 686.584 908.345C687.139 905.981 687.139 903.521 686.584 901.157C685.858 898.061 683.441 895.643 680.345 894.917Z" fill="url(#paint7_linear_0_1)"/>
<path fill-rule="evenodd" clip-rule="evenodd" d="M550.92 905.485L549.522 905.793V907.652C549.522 910.839 547.518 913.55 544.722 914.555V919.56C544.722 920.908 543.647 922 542.322 922C540.996 922 539.921 920.908 539.921 919.56V914.555C537.125 913.55 535.121 910.839 535.121 907.652V905.929C534.913 905.887 534.704 905.843 534.496 905.797L533.08 905.485C526.17 903.963 520.702 898.597 518.962 891.63C517.679 886.496 517.679 881.118 518.962 875.984C520.702 869.018 526.17 863.651 533.08 862.129L534.496 861.817C539.441 860.728 544.559 860.728 549.504 861.817L550.92 862.129C557.83 863.651 563.298 869.018 565.038 875.985C566.321 881.118 566.321 886.496 565.038 891.63C563.298 898.597 557.83 903.963 550.92 905.485ZM544.722 906.508C544.443 906.53 544.165 906.548 543.886 906.563C542.565 906.635 541.242 906.631 539.921 906.552V907.652C539.921 908.999 540.996 910.092 542.322 910.092C543.647 910.092 544.722 908.999 544.722 907.652V906.508ZM544.801 874.116C545.629 874.789 545.764 876.018 545.101 876.859L541.196 881.821H546.802C547.54 881.821 548.213 882.251 548.533 882.928C548.852 883.604 548.762 884.407 548.301 884.993L541.901 893.126C541.238 893.968 540.03 894.104 539.202 893.431C538.374 892.757 538.24 891.529 538.902 890.687L542.807 885.725H537.201C536.463 885.725 535.79 885.295 535.471 884.619C535.151 883.943 535.241 883.14 535.702 882.554L542.102 874.421C542.765 873.579 543.973 873.442 544.801 874.116Z" fill="#FCA311"/>
<path fill-rule="evenodd" clip-rule="evenodd" d="M550.92 905.485L549.522 905.793V907.652C549.522 910.839 547.518 913.55 544.722 914.555V919.56C544.722 920.908 543.647 922 542.322 922C540.996 922 539.921 920.908 539.921 919.56V914.555C537.125 913.55 535.121 910.839 535.121 907.652V905.929C534.913 905.887 534.704 905.843 534.496 905.797L533.08 905.485C526.17 903.963 520.702 898.597 518.962 891.63C517.679 886.496 517.679 881.118 518.962 875.984C520.702 869.018 526.17 863.651 533.08 862.129L534.496 861.817C539.441 860.728 544.559 860.728 549.504 861.817L550.92 862.129C557.83 863.651 563.298 869.018 565.038 875.985C566.321 881.118 566.321 886.496 565.038 891.63C563.298 898.597 557.83 903.963 550.92 905.485ZM544.722 906.508C544.443 906.53 544.165 906.548 543.886 906.563C542.565 906.635 541.242 906.631 539.921 906.552V907.652C539.921 908.999 540.996 910.092 542.322 910.092C543.647 910.092 544.722 908.999 544.722 907.652V906.508ZM544.801 874.116C545.629 874.789 545.764 876.018 545.101 876.859L541.196 881.821H546.802C547.54 881.821 548.213 882.251 548.533 882.928C548.852 883.604 548.762 884.407 548.301 884.993L541.901 893.126C541.238 893.968 540.03 894.104 539.202 893.431C538.374 892.757 538.24 891.529 538.902 890.687L542.807 885.725H537.201C536.463 885.725 535.79 885.295 535.471 884.619C535.151 883.943 535.241 883.14 535.702 882.554L542.102 874.421C542.765 873.579 543.973 873.442 544.801 874.116Z" fill="url(#paint8_linear_0_1)"/>
<path fill-rule="evenodd" clip-rule="evenodd" d="M776.079 769.917C781.289 768.694 786.711 768.694 791.921 769.917C799.444 771.681 805.319 777.556 807.083 785.079C808.306 790.289 808.306 795.711 807.083 800.921C805.319 808.444 799.444 814.319 791.921 816.083C786.711 817.306 781.289 817.306 776.079 816.083C768.556 814.319 762.681 808.444 760.917 800.921C759.694 795.711 759.694 790.289 760.917 785.079C762.681 777.556 768.556 771.681 776.079 769.917ZM787.973 787.7C788.807 787.366 789.634 788.193 789.301 789.027L787.22 794.229C786.857 795.137 786.137 795.856 785.229 796.22L780.027 798.3C779.194 798.634 778.366 797.807 778.7 796.973L780.781 791.771C781.144 790.863 781.863 790.144 782.772 789.78L787.973 787.7ZM792.145 790.165C793.479 786.83 790.17 783.522 786.836 784.855L781.634 786.936C779.947 787.611 778.611 788.947 777.936 790.634L775.856 795.835C774.522 799.17 777.831 802.478 781.165 801.145L786.367 799.064C788.053 798.389 789.39 797.053 790.064 795.366L792.145 790.165Z" fill="#FCA311"/>
<path fill-rule="evenodd" clip-rule="evenodd" d="M776.079 769.917C781.289 768.694 786.711 768.694 791.921 769.917C799.444 771.681 805.319 777.556 807.083 785.079C808.306 790.289 808.306 795.711 807.083 800.921C805.319 808.444 799.444 814.319 791.921 816.083C786.711 817.306 781.289 817.306 776.079 816.083C768.556 814.319 762.681 808.444 760.917 800.921C759.694 795.711 759.694 790.289 760.917 785.079C762.681 777.556 768.556 771.681 776.079 769.917ZM787.973 787.7C788.807 787.366 789.634 788.193 789.301 789.027L787.22 794.229C786.857 795.137 786.137 795.856 785.229 796.22L780.027 798.3C779.194 798.634 778.366 797.807 778.7 796.973L780.781 791.771C781.144 790.863 781.863 790.144 782.772 789.78L787.973 787.7ZM792.145 790.165C793.479 786.83 790.17 783.522 786.836 784.855L781.634 786.936C779.947 787.611 778.611 788.947 777.936 790.634L775.856 795.835C774.522 799.17 777.831 802.478 781.165 801.145L786.367 799.064C788.053 798.389 789.39 797.053 790.064 795.366L792.145 790.165Z" fill="url(#paint9_linear_0_1)"/>
<path fill-rule="evenodd" clip-rule="evenodd" d="M652.147 771C657.154 771 661.448 773.854 663.604 777.975C666.25 776.793 669.197 776.134 672.302 776.134C683.701 776.134 693 785.027 693 796.067C693 807.107 683.7 816 672.302 816L648.116 816C639.8 816 633 809.51 633 801.433C633 796.181 635.881 791.597 640.175 789.037C639.547 787.5 639.202 785.818 639.202 784.059C639.202 776.92 644.924 771 652.147 771ZM643.388 784.059C643.388 779.033 647.383 775.091 652.147 775.091C655.54 775.091 658.534 777.08 659.985 780.047C657.365 781.918 655.218 784.372 653.753 787.216C653.652 787.41 653.555 787.606 653.462 787.804C653.275 787.736 653.087 787.672 652.897 787.611C651.392 787.128 649.784 786.867 648.116 786.867C646.699 786.867 645.324 787.055 644.019 787.409C643.612 786.377 643.388 785.247 643.388 784.059Z" fill="#FCA311"/>
<path fill-rule="evenodd" clip-rule="evenodd" d="M652.147 771C657.154 771 661.448 773.854 663.604 777.975C666.25 776.793 669.197 776.134 672.302 776.134C683.701 776.134 693 785.027 693 796.067C693 807.107 683.7 816 672.302 816L648.116 816C639.8 816 633 809.51 633 801.433C633 796.181 635.881 791.597 640.175 789.037C639.547 787.5 639.202 785.818 639.202 784.059C639.202 776.92 644.924 771 652.147 771ZM643.388 784.059C643.388 779.033 647.383 775.091 652.147 775.091C655.54 775.091 658.534 777.08 659.985 780.047C657.365 781.918 655.218 784.372 653.753 787.216C653.652 787.41 653.555 787.606 653.462 787.804C653.275 787.736 653.087 787.672 652.897 787.611C651.392 787.128 649.784 786.867 648.116 786.867C646.699 786.867 645.324 787.055 644.019 787.409C643.612 786.377 643.388 785.247 643.388 784.059Z" fill="url(#paint10_linear_0_1)"/>
<path fill-rule="evenodd" clip-rule="evenodd" d="M531.147 771C536.154 771 540.448 773.854 542.604 777.975C545.25 776.793 548.197 776.134 551.302 776.134C562.701 776.134 572 785.027 572 796.067C572 807.107 562.7 816 551.302 816L527.116 816C518.8 816 512 809.51 512 801.433C512 796.181 514.881 791.597 519.175 789.037C518.547 787.5 518.202 785.818 518.202 784.059C518.202 776.92 523.924 771 531.147 771ZM522.388 784.059C522.388 779.033 526.383 775.091 531.147 775.091C534.54 775.091 537.534 777.08 538.985 780.047C536.365 781.918 534.218 784.372 532.753 787.216C532.652 787.41 532.555 787.606 532.462 787.804C532.275 787.736 532.087 787.672 531.897 787.611C530.392 787.128 528.784 786.867 527.116 786.867C525.699 786.867 524.324 787.055 523.019 787.409C522.612 786.377 522.388 785.247 522.388 784.059Z" fill="#FCA311"/>
<path fill-rule="evenodd" clip-rule="evenodd" d="M531.147 771C536.154 771 540.448 773.854 542.604 777.975C545.25 776.793 548.197 776.134 551.302 776.134C562.701 776.134 572 785.027 572 796.067C572 807.107 562.7 816 551.302 816L527.116 816C518.8 816 512 809.51 512 801.433C512 796.181 514.881 791.597 519.175 789.037C518.547 787.5 518.202 785.818 518.202 784.059C518.202 776.92 523.924 771 531.147 771ZM522.388 784.059C522.388 779.033 526.383 775.091 531.147 775.091C534.54 775.091 537.534 777.08 538.985 780.047C536.365 781.918 534.218 784.372 532.753 787.216C532.652 787.41 532.555 787.606 532.462 787.804C532.275 787.736 532.087 787.672 531.897 787.611C530.392 787.128 528.784 786.867 527.116 786.867C525.699 786.867 524.324 787.055 523.019 787.409C522.612 786.377 522.388 785.247 522.388 784.059Z" fill="url(#paint11_linear_0_1)"/>
<circle cx="367" cy="859" r="16" fill="#FCA311"/>
<circle cx="367" cy="859" r="16" fill="url(#paint12_linear_0_1)"/>
<path d="M362.193 863V860.012L359.373 854.6H361.113L362.973 858.476L364.821 854.6H366.537L363.729 860.012V863H362.193ZM369.477 863V855.836H367.029V854.6H373.473V855.836H371.013V863H369.477Z" fill="white"/>
<circle cx="407" cy="859" r="16" fill="#FCA311"/>
<circle cx="407" cy="859" r="16" fill="url(#paint13_linear_0_1)"/>
<path d="M402.929 863V854.6H404.465V861.8H408.185V863H402.929ZM409.539 863V854.6H411.075V863H409.539Z" fill="white"/>
<circle cx="327" cy="859" r="16" fill="#FCA311"/>
<circle cx="327" cy="859" r="16" fill="url(#paint14_linear_0_1)"/>
<path d="M320.816 863V854.6H322.352V863H320.816ZM327.652 863.144C326.86 863.144 326.168 862.964 325.576 862.604C324.984 862.244 324.524 861.744 324.196 861.104C323.868 860.456 323.704 859.704 323.704 858.848C323.704 857.984 323.872 857.224 324.208 856.568C324.552 855.904 325.036 855.388 325.66 855.02C326.292 854.644 327.04 854.456 327.904 854.456C328.888 854.456 329.704 854.692 330.352 855.164C331 855.636 331.42 856.288 331.612 857.12H329.896C329.768 856.728 329.536 856.424 329.2 856.208C328.864 855.984 328.432 855.872 327.904 855.872C327.064 855.872 326.416 856.14 325.96 856.676C325.504 857.204 325.276 857.932 325.276 858.86C325.276 859.788 325.5 860.508 325.948 861.02C326.404 861.524 327.02 861.776 327.796 861.776C328.556 861.776 329.128 861.572 329.512 861.164C329.904 860.748 330.14 860.204 330.22 859.532H328.096V858.38H331.768V863H330.352L330.232 861.896C329.96 862.296 329.62 862.604 329.212 862.82C328.804 863.036 328.284 863.144 327.652 863.144Z" fill="white"/>
<circle cx="287" cy="859" r="16" fill="#FCA311"/>
<circle cx="287" cy="859" r="16" fill="url(#paint15_linear_0_1)"/>
<path d="M279.816 863V854.6H285.24V855.836H281.352V858.188H284.496V859.4H281.352V863H279.816ZM286.425 863V854.6H289.797C290.669 854.6 291.333 854.804 291.789 855.212C292.253 855.612 292.485 856.128 292.485 856.76C292.485 857.288 292.341 857.712 292.053 858.032C291.773 858.344 291.429 858.556 291.021 858.668C291.501 858.764 291.897 859.004 292.209 859.388C292.521 859.764 292.677 860.204 292.677 860.708C292.677 861.372 292.437 861.92 291.957 862.352C291.477 862.784 290.797 863 289.917 863H286.425ZM287.961 858.128H289.569C290.001 858.128 290.333 858.028 290.565 857.828C290.797 857.628 290.913 857.344 290.913 856.976C290.913 856.624 290.797 856.348 290.565 856.148C290.341 855.94 290.001 855.836 289.545 855.836H287.961V858.128ZM287.961 861.752H289.677C290.133 861.752 290.485 861.648 290.733 861.44C290.989 861.224 291.117 860.924 291.117 860.54C291.117 860.148 290.985 859.84 290.721 859.616C290.457 859.392 290.101 859.28 289.653 859.28H287.961V861.752Z" fill="white"/>
<defs>
<linearGradient id="paint0_linear_0_1" x1="760" y1="866.778" x2="789.245" y2="924.311" gradientUnits="userSpaceOnUse">
<stop stop-color="#09C6F9"/>
<stop offset="1" stop-color="#045DE9"/>
</linearGradient>
<linearGradient id="paint1_linear_0_1" x1="760" y1="866.778" x2="789.245" y2="924.311" gradientUnits="userSpaceOnUse">
<stop stop-color="#09C6F9"/>
<stop offset="1" stop-color="#045DE9"/>
</linearGradient>
<linearGradient id="paint2_linear_0_1" x1="760" y1="866.778" x2="789.245" y2="924.311" gradientUnits="userSpaceOnUse">
<stop stop-color="#09C6F9"/>
<stop offset="1" stop-color="#045DE9"/>
</linearGradient>
<linearGradient id="paint3_linear_0_1" x1="760" y1="866.778" x2="789.245" y2="924.311" gradientUnits="userSpaceOnUse">
<stop stop-color="#09C6F9"/>
<stop offset="1" stop-color="#045DE9"/>
</linearGradient>
<linearGradient id="paint4_linear_0_1" x1="639" y1="866.778" x2="668.245" y2="924.311" gradientUnits="userSpaceOnUse">
<stop stop-color="#09C6F9"/>
<stop offset="1" stop-color="#045DE9"/>
</linearGradient>
<linearGradient id="paint5_linear_0_1" x1="639" y1="866.778" x2="668.245" y2="924.311" gradientUnits="userSpaceOnUse">
<stop stop-color="#09C6F9"/>
<stop offset="1" stop-color="#045DE9"/>
</linearGradient>
<linearGradient id="paint6_linear_0_1" x1="639" y1="866.778" x2="668.245" y2="924.311" gradientUnits="userSpaceOnUse">
<stop stop-color="#09C6F9"/>
<stop offset="1" stop-color="#045DE9"/>
</linearGradient>
<linearGradient id="paint7_linear_0_1" x1="639" y1="866.778" x2="668.245" y2="924.311" gradientUnits="userSpaceOnUse">
<stop stop-color="#09C6F9"/>
<stop offset="1" stop-color="#045DE9"/>
</linearGradient>
<linearGradient id="paint8_linear_0_1" x1="518" y1="860.718" x2="559.936" y2="925.635" gradientUnits="userSpaceOnUse">
<stop stop-color="#09C6F9"/>
<stop offset="1" stop-color="#045DE9"/>
</linearGradient>
<linearGradient id="paint9_linear_0_1" x1="760" y1="768.778" x2="789.245" y2="826.311" gradientUnits="userSpaceOnUse">
<stop stop-color="#09C6F9"/>
<stop offset="1" stop-color="#045DE9"/>
</linearGradient>
<linearGradient id="paint10_linear_0_1" x1="633" y1="770.792" x2="655.593" y2="830.053" gradientUnits="userSpaceOnUse">
<stop stop-color="#09C6F9"/>
<stop offset="1" stop-color="#045DE9"/>
</linearGradient>
<linearGradient id="paint11_linear_0_1" x1="512" y1="770.792" x2="534.593" y2="830.053" gradientUnits="userSpaceOnUse">
<stop stop-color="#09C6F9"/>
<stop offset="1" stop-color="#045DE9"/>
</linearGradient>
<linearGradient id="paint12_linear_0_1" x1="351" y1="842.852" x2="370.497" y2="881.207" gradientUnits="userSpaceOnUse">
<stop stop-color="#09C6F9"/>
<stop offset="1" stop-color="#045DE9"/>
</linearGradient>
<linearGradient id="paint13_linear_0_1" x1="391" y1="842.852" x2="410.497" y2="881.207" gradientUnits="userSpaceOnUse">
<stop stop-color="#09C6F9"/>
<stop offset="1" stop-color="#045DE9"/>
</linearGradient>
<linearGradient id="paint14_linear_0_1" x1="311" y1="842.852" x2="330.497" y2="881.207" gradientUnits="userSpaceOnUse">
<stop stop-color="#09C6F9"/>
<stop offset="1" stop-color="#045DE9"/>
</linearGradient>
<linearGradient id="paint15_linear_0_1" x1="271" y1="842.852" x2="290.497" y2="881.207" gradientUnits="userSpaceOnUse">
<stop stop-color="#09C6F9"/>
<stop offset="1" stop-color="#045DE9"/>
</linearGradient>
<clipPath id="clip0_0_1">
<rect width="544" height="420" fill="white" transform="translate(0 39)"/>
</clipPath>
</defs>
</svg>
